<?xml version="1.0" encoding="utf-8"?>
<!-- Generator: Adobe Illustrator 24.0.0, SVG Export Plug-In . SVG Version: 6.00 Build 0)  -->
<svg version="1.1" id="Layer_1" xmlns="http://www.w3.org/2000/svg" xmlns:xlink="http://www.w3.org/1999/xlink" x="0px" y="0px"
	 viewBox="0 0 375 375" style="enable-background:new 0 0 375 375;" xml:space="preserve">
<style type="text/css">
	.st0{clip-path:url(#SVGID_2_);fill:#C2A65D;}
	.st1{fill-rule:evenodd;clip-rule:evenodd;fill:none;stroke:#C2A65D;stroke-miterlimit:10;}
	.st2{fill:#C3A861;}
	.st3{fill:#C3A760;}
	.st4{fill:#C1A55D;}
	.st5{fill:#C2A760;}
</style>
<g>
	<defs>
		<rect id="SVGID_1_" x="17.02" y="17.02" width="340.97" height="340.97"/>
	</defs>
	<clipPath id="SVGID_2_">
		<use xlink:href="#SVGID_1_"  style="overflow:visible;"/>
	</clipPath>
	<path class="st0" d="M187.44,19.9C95.02,19.9,19.9,95.02,19.9,187.44S95.13,355.1,187.44,355.1S355.1,279.87,355.1,187.44
		S279.87,19.9,187.44,19.9z M187.44,357.98c-93.92,0-170.43-76.5-170.43-170.54S93.52,17.02,187.44,17.02s170.43,76.5,170.43,170.43
		C357.98,281.48,281.48,357.98,187.44,357.98z"/>
</g>
<g>
	<path class="st1" d="M153.59,65.97c-0.22-0.18-0.65-0.48-1.03-0.75c-0.16-0.18-0.36-0.37-0.6-0.55c-0.37-0.43-0.9-0.82-1.23-1.29
		c0.04-0.12,0.14,0.01,0.2-0.03c0.08-0.03-0.19-0.18-0.03-0.11c0.06-0.13,0.23,0.1,0.24,0.14c0.13,0.09,0.19,0.17,0.26,0.26
		c0.37,0.25,0.73,0.65,1.07,0.98c0.19,0.19,0.33,0.19,0.45,0.38c0.33,0.15,0.79,0.49,1.21,0.76c0.34,0.39,0.58,0.45,0.76,0.79
		c0.53,0.26,0.92,0.64,1.5,1.2c0.54,0.62,1.11,1.12,1.67,1.76c0.08,0.16,0.36,0.35,0.33,0.5c0.21,0.1,0.42,0.43,0.54,0.62
		c0.13,0.02,0.11,0.06,0.21,0.11c0.29,0.39,0.57,0.65,0.98,0.95c0.35,0.34,0.41,0.49,0.7,0.66c0.13,0.14,0.12,0.23,0.28,0.31
		c0.04,0.06,0.13,0.04,0.09,0.1c0.11,0.17,0.19,0.17,0.15,0.29c0.08,0.11,0.26,0.24,0.18,0.33c-0.08,0.12-0.16-0.1-0.24-0.16
		c-0.08,0.01-0.16-0.12-0.24-0.16c-0.08-0.1-0.21-0.21-0.21-0.3c-0.16-0.06-0.26-0.23-0.42-0.36c-0.08-0.06-0.15-0.09-0.24-0.15
		s-0.15-0.14-0.24-0.21c-0.36-0.28-0.93-0.73-1.23-1.21c-0.09-0.09-0.18-0.09-0.28-0.18c-0.65-0.82-1.05-1.27-1.86-1.99
		c-0.13-0.19-0.28-0.21-0.31-0.4c-0.32-0.25-0.61-0.55-0.83-0.84c-0.15-0.06-0.29-0.11-0.43-0.2c-0.34-0.22-0.51-0.53-0.9-0.83
		c0.01,0.01,0.03-0.06-0.01-0.06C153.96,66.35,153.74,66.09,153.59,65.97z M171.12,93.43c0.18,0.32,0.51,0.79,0.43,0.87
		c-0.06,0.16-0.29-0.38-0.43-0.59c-0.11-0.08-0.29-0.42-0.43-0.58c-0.18-0.3-0.42-0.67-0.46-0.85c-0.29-0.31-0.53-0.76-0.83-1.19
		c-0.14-0.2-0.28-0.35-0.45-0.57c-0.16-0.23-0.31-0.45-0.5-0.68c-0.72-0.97-1.89-2.48-2.66-3.72c-0.21-0.27-0.36-0.36-0.56-0.63
		c-1.59-2.28-2.57-3.55-4.48-5.67c-0.36-0.49-0.65-0.68-0.82-1.05c-0.76-0.76-1.47-1.58-2.11-2.32c-0.32-0.24-0.62-0.46-0.95-0.76
		c-0.79-0.71-1.35-1.39-2.32-2.28c0.03,0.03-0.01-0.09-0.06-0.11c-0.27-0.11-0.9-0.74-1.29-1.08c-0.56-0.5-1.62-1.36-2.61-2.13
		c-0.48-0.44-1.03-0.92-1.64-1.4c-0.55-0.5-1.18-1-1.8-1.52c-0.63-0.5-1.25-1-1.8-1.5c-0.01-0.16,0.29,0.13,0.38,0.09
		c0.13,0.01-0.54-0.43-0.15-0.21c-0.01-0.18,0.55,0.33,0.6,0.4c0.34,0.23,0.53,0.41,0.75,0.61c0.96,0.68,2.03,1.6,2.99,2.45
		c0.54,0.47,0.81,0.59,1.21,1c0.76,0.53,1.94,1.47,2.95,2.32c0.95,0.96,1.44,1.29,2.05,2.06c1.19,0.94,2.19,1.97,3.64,3.56
		c1.4,1.65,2.75,3.15,4.1,4.93c0.23,0.4,0.83,1.03,0.88,1.3c0.42,0.42,0.95,1.27,1.27,1.77c0.24,0.18,0.22,0.24,0.41,0.45
		c0.7,1.07,1.3,1.88,2.12,2.95c0.75,1.06,0.89,1.43,1.44,2.1c0.27,0.43,0.31,0.6,0.58,0.93c0.1,0.18,0.21,0.24,0.18,0.31
		C170.99,93.13,171.12,93.22,171.12,93.43z M161.51,76.28c0.55,0.74,1.13,1.36,1.71,2.11c0.08,0.19,0.37,0.42,0.34,0.58
		c0.23,0.14,0.43,0.51,0.56,0.73c0.14,0.04,0.11,0.08,0.22,0.15c0.31,0.45,0.6,0.76,1.03,1.15c0.37,0.41,0.43,0.57,0.73,0.79
		c0.14,0.16,0.13,0.26,0.29,0.36c0.05,0.08,0.13,0.06,0.09,0.12c0.11,0.19,0.2,0.2,0.16,0.33c0.09,0.13,0.28,0.29,0.19,0.37
		c-0.08,0.12-0.17-0.13-0.25-0.19c-0.08,0-0.17-0.14-0.25-0.19c-0.09-0.12-0.23-0.25-0.23-0.34c-0.18-0.09-0.28-0.28-0.44-0.43
		c-0.08-0.07-0.16-0.11-0.25-0.19c-0.09-0.08-0.16-0.17-0.25-0.26c-0.38-0.35-0.98-0.91-1.29-1.46c-0.1-0.11-0.19-0.12-0.29-0.23
		c-0.68-0.97-1.09-1.51-1.92-2.39c-0.13-0.23-0.29-0.27-0.31-0.48c-0.33-0.32-0.62-0.68-0.85-1.03c-0.16-0.08-0.31-0.16-0.45-0.28
		c-0.35-0.29-0.52-0.64-0.92-1.03c0.01,0.01,0.03-0.06-0.01-0.06c-0.15-0.01-0.38-0.32-0.54-0.48c-0.23-0.23-0.65-0.62-1.05-0.98
		c-0.16-0.23-0.36-0.46-0.6-0.7c-0.36-0.53-0.9-1.03-1.21-1.6c0.06-0.11,0.15,0.04,0.21,0.01c0.08-0.01-0.19-0.23-0.02-0.13
		c0.07-0.13,0.24,0.15,0.24,0.19c0.13,0.11,0.19,0.22,0.26,0.32c0.37,0.33,0.73,0.82,1.07,1.24c0.19,0.23,0.33,0.27,0.45,0.49
		c0.34,0.22,0.8,0.66,1.24,1.02c0.33,0.47,0.58,0.57,0.76,0.97C160.52,75.14,160.92,75.6,161.51,76.28z M211.56,81.98
		c0-0.13-0.38,0.5-0.19,0.14c-0.17,0.01,0.28-0.51,0.35-0.56c0.21-0.31,0.37-0.49,0.54-0.69c0.59-0.88,1.42-1.87,2.17-2.75
		c0.42-0.5,0.52-0.75,0.89-1.11c0.46-0.7,1.3-1.79,2.05-2.71c0.87-0.87,1.15-1.32,1.84-1.87c0.83-1.1,1.76-2.01,3.19-3.32
		c1.49-1.27,2.85-2.5,4.47-3.71c0.36-0.21,0.93-0.75,1.19-0.79c0.38-0.38,1.16-0.86,1.61-1.14c0.16-0.22,0.22-0.2,0.4-0.38
		c0.98-0.63,1.71-1.17,2.68-1.91c0.97-0.68,1.3-0.79,1.91-1.29c0.39-0.24,0.55-0.27,0.85-0.51c0.17-0.09,0.21-0.19,0.28-0.16
		c0.43-0.21,0.51-0.33,0.7-0.31c0.29-0.16,0.72-0.46,0.8-0.37c0.16,0.07-0.35,0.26-0.53,0.4c-0.06,0.11-0.38,0.26-0.53,0.39
		c-0.28,0.15-0.61,0.37-0.78,0.4c-0.28,0.27-0.7,0.48-1.08,0.75c-0.18,0.13-0.32,0.26-0.52,0.41c-0.21,0.14-0.4,0.28-0.62,0.45
		c-0.88,0.65-2.24,1.71-3.38,2.39c-0.24,0.19-0.33,0.33-0.57,0.51c-2.08,1.42-3.23,2.3-5.14,4.03c-0.45,0.33-0.61,0.6-0.95,0.73
		c-0.68,0.7-1.42,1.34-2.09,1.92c-0.21,0.29-0.41,0.58-0.67,0.87c-0.64,0.72-1.25,1.24-2.04,2.12c0.03-0.03-0.08,0-0.1,0.06
		c-0.09,0.25-0.65,0.82-0.97,1.19c-0.44,0.51-1.21,1.49-1.89,2.4c-0.39,0.43-0.82,0.94-1.25,1.5c-0.45,0.51-0.9,1.08-1.35,1.65
		c-0.44,0.58-0.88,1.15-1.34,1.64C211.33,82.35,211.59,82.06,211.56,81.98z M199.77,94.98c0.15-0.38,0.28-0.59,0.42-0.84
		c0.21-0.53,0.5-1.08,0.79-1.65c0.29-0.56,0.6-1.14,0.92-1.67c0.34-0.6,0.4-0.88,0.71-1.34c0.35-0.82,1.01-2.13,1.62-3.25
		c0.73-1.08,0.94-1.61,1.56-2.34c0.66-1.31,1.45-2.46,2.7-4.11c1.32-1.63,2.51-3.19,3.97-4.77c0.33-0.29,0.84-0.97,1.09-1.07
		c0.33-0.47,1.05-1.12,1.47-1.5c0.13-0.26,0.19-0.25,0.35-0.47c0.91-0.85,1.58-1.56,2.46-2.5c0.89-0.89,1.22-1.07,1.77-1.71
		c0.37-0.33,0.53-0.39,0.8-0.7c0.16-0.12,0.19-0.24,0.27-0.23c0.41-0.3,0.48-0.44,0.68-0.46c0.28-0.22,0.67-0.61,0.76-0.54
		c0.17,0.04-0.32,0.33-0.5,0.51c-0.05,0.13-0.36,0.35-0.49,0.51c-0.26,0.21-0.58,0.5-0.74,0.57c-0.25,0.33-0.65,0.63-1,0.98
		c-0.16,0.17-0.29,0.33-0.48,0.52c-0.19,0.19-0.37,0.36-0.58,0.58c-0.4,0.43-0.92,0.97-1.46,1.54c-0.53,0.57-1.12,1.14-1.65,1.61
		c-0.22,0.24-0.28,0.4-0.5,0.65c-1.91,1.89-2.95,3.05-4.61,5.24c-0.4,0.43-0.53,0.74-0.85,0.96c-0.59,0.86-1.24,1.69-1.82,2.43
		c-0.16,0.35-0.32,0.68-0.54,1.04c-0.53,0.88-1.07,1.54-1.72,2.63c0.02-0.03-0.08,0.02-0.09,0.08c-0.04,0.28-0.53,0.99-0.78,1.44
		c-0.36,0.63-0.97,1.81-1.5,2.89c-0.32,0.54-0.66,1.15-1,1.84c-0.36,0.62-0.71,1.32-1.07,2.01c-0.34,0.7-0.68,1.39-1.05,2.01
		c-0.15,0.04,0.05-0.31,0.01-0.38c-0.02-0.13-0.29,0.6-0.16,0.18C199.34,95.68,199.7,95.04,199.77,94.98z M220.06,155.13
		c0.09,0.05-0.14-0.46,0.01-0.18c0.11-0.12,0.21,0.4,0.21,0.46c0.11,0.26,0.14,0.45,0.19,0.65c0.31,0.75,0.59,1.7,0.88,2.54
		c0.16,0.47,0.31,0.63,0.4,1.02c0.33,0.56,0.76,1.52,1.19,2.33c0.29,0.89,0.56,1.21,0.72,1.88c0.56,0.9,0.96,1.81,1.58,3.15
		c0.56,1.39,1.21,2.63,1.86,4.04c0.09,0.31,0.42,0.82,0.39,1.03c0.26,0.33,0.51,0.98,0.66,1.36c0.16,0.13,0.13,0.18,0.26,0.34
		c0.38,0.81,0.73,1.42,1.27,2.18c0.46,0.78,0.55,1.03,0.93,1.5c0.18,0.3,0.17,0.45,0.38,0.66c0.06,0.13,0.16,0.16,0.13,0.22
		c0.16,0.33,0.26,0.38,0.23,0.55c0.12,0.23,0.36,0.55,0.28,0.62c-0.08,0.14-0.21-0.26-0.32-0.4c-0.09-0.04-0.21-0.29-0.32-0.4
		c-0.12-0.21-0.29-0.46-0.31-0.6c-0.21-0.21-0.35-0.54-0.56-0.84c-0.09-0.14-0.2-0.24-0.31-0.4c-0.11-0.16-0.2-0.32-0.32-0.5
		c-0.48-0.7-1.21-1.82-1.59-2.78c-0.11-0.21-0.23-0.28-0.34-0.49c-0.81-1.77-1.27-2.78-2.18-4.55c-0.14-0.41-0.32-0.57-0.33-0.87
		c-0.35-0.66-0.66-1.35-0.88-2.01c-0.17-0.23-0.33-0.44-0.48-0.71c-0.37-0.65-0.5-1.26-0.9-2.09c0.01,0.03,0.04-0.06,0-0.09
		c-0.17-0.13-0.37-0.72-0.52-1.06c-0.22-0.47-0.62-1.34-0.98-2.14c-0.13-0.44-0.31-0.92-0.51-1.43c-0.28-1.01-0.74-2.13-0.92-3.16
		C219.92,154.82,219.97,155.11,220.06,155.13z M167.05,157.69c0.01-0.42,0.23-1.08,0.36-1.47c-0.04-0.21,0.01-0.23,0.01-0.43
		c0.22-0.87,0.33-1.57,0.38-2.5c0.13-0.9,0.21-1.15,0.19-1.76c0.04-0.35,0.14-0.46,0.11-0.75c0.03-0.14-0.04-0.23,0.03-0.25
		c0.08-0.36,0.03-0.46,0.14-0.58c0.04-0.25,0.04-0.65,0.16-0.66c0.14-0.06,0.01,0.34,0.01,0.51c0.05,0.09,0,0.36,0.01,0.51
		c-0.03,0.24-0.04,0.55-0.12,0.66c0.04,0.3-0.05,0.65-0.07,1.02c-0.01,0.17,0.01,0.32,0,0.51c-0.01,0.19-0.04,0.38-0.06,0.59
		c-0.06,0.85-0.19,2.19-0.51,3.18c-0.04,0.24-0.01,0.36-0.06,0.6c-0.51,1.89-0.83,2.97-1.32,4.91c-0.17,0.4-0.14,0.65-0.33,0.87
		c-0.19,0.73-0.43,1.46-0.71,2.08c-0.03,0.28-0.06,0.55-0.13,0.85c-0.18,0.73-0.51,1.27-0.79,2.15c0.01-0.03-0.08,0.02-0.07,0.06
		c0.03,0.21-0.24,0.78-0.37,1.13c-0.18,0.49-0.52,1.4-0.83,2.23c-0.23,0.4-0.44,0.87-0.67,1.37c-0.53,0.91-1.05,2.03-1.67,2.86
		c-0.14,0.01,0.03-0.23-0.02-0.29c-0.03-0.1-0.24,0.42-0.14,0.11c-0.16,0.01,0.14-0.43,0.19-0.47c0.12-0.26,0.23-0.41,0.34-0.58
		c0.34-0.75,0.83-1.61,1.24-2.4c0.23-0.45,0.23-0.66,0.45-1c0.16-0.63,0.55-1.62,0.8-2.5c0.42-0.85,0.44-1.27,0.79-1.86
		c0.21-1.04,0.55-1.98,1-3.4c0.52-1.42,0.86-2.78,1.27-4.28C166.82,158.44,166.89,157.83,167.05,157.69z M148.1,134.03
		c0.01-0.09-0.33,0.2-0.15,0.01c-0.13-0.08,0.25-0.26,0.31-0.26c0.18-0.14,0.32-0.2,0.46-0.28c0.51-0.41,1.2-0.8,1.79-1.2
		c0.33-0.23,0.41-0.38,0.7-0.53c0.34-0.4,0.98-0.94,1.49-1.47c0.63-0.42,0.78-0.72,1.28-0.98c0.53-0.67,1.13-1.19,1.99-1.99
		c0.92-0.76,1.69-1.59,2.58-2.45c0.21-0.14,0.5-0.54,0.68-0.56c0.16-0.3,0.6-0.66,0.84-0.87c0.04-0.17,0.09-0.16,0.17-0.3
		c0.51-0.5,0.86-0.94,1.25-1.57c0.45-0.57,0.61-0.71,0.83-1.13c0.17-0.23,0.29-0.24,0.38-0.47c0.08-0.09,0.06-0.18,0.13-0.16
		c0.21-0.21,0.2-0.31,0.34-0.33c0.13-0.15,0.28-0.44,0.39-0.38c0.14,0.03-0.12,0.24-0.19,0.36c0.01,0.09-0.14,0.25-0.19,0.36
		c-0.12,0.15-0.25,0.36-0.36,0.4c-0.08,0.23-0.29,0.43-0.45,0.68c-0.08,0.11-0.11,0.23-0.19,0.36c-0.08,0.14-0.18,0.24-0.27,0.39
		c-0.36,0.57-0.98,1.45-1.62,1.99c-0.13,0.14-0.14,0.26-0.26,0.4c-1.12,1.08-1.77,1.71-2.87,2.86c-0.28,0.2-0.34,0.4-0.58,0.46
		c-0.41,0.44-0.87,0.85-1.31,1.16c-0.12,0.19-0.24,0.38-0.4,0.56c-0.4,0.45-0.85,0.68-1.38,1.19c0.02-0.01-0.06-0.03-0.08,0.01
		c-0.05,0.18-0.46,0.46-0.68,0.66c-0.31,0.28-0.89,0.79-1.42,1.26c-0.31,0.19-0.65,0.43-1,0.7c-0.73,0.41-1.5,1.02-2.28,1.34
		C147.9,134.2,148.12,134.1,148.1,134.03z M140.76,200.02c-0.28-0.11,0.36-0.56,0.46-0.58c0.28-0.33,0.51-0.47,0.75-0.65
		c0.4-0.45,0.85-0.93,1.34-1.4s1-0.94,1.45-1.41c0.51-0.53,0.58-0.86,1.05-1.22c0.44-0.87,1.37-2.1,2.03-3.27
		c0.95-1,1.08-1.63,1.87-2.29c0.62-1.44,1.45-2.63,2.6-4.48c0.65-0.89,1.18-1.81,1.73-2.73c0.52-0.94,1.04-1.88,1.59-2.88
		c0.31-0.36,0.59-1.21,0.92-1.33c0.11-0.61,0.68-1.47,1.01-1.98c-0.03-0.33,0.08-0.33,0.11-0.63c0.61-1.16,0.98-2.13,1.28-3.47
		c0.44-1.25,0.65-1.59,0.76-2.48c0.16-0.49,0.37-0.6,0.36-1.04c0.08-0.19-0.03-0.34,0.11-0.35c0.23-0.49,0.14-0.66,0.41-0.77
		c0.14-0.34,0.21-0.93,0.45-0.89c0.29-0.03-0.05,0.5-0.08,0.75c0.08,0.16-0.08,0.53-0.09,0.75c-0.12,0.34-0.21,0.78-0.38,0.92
		c0.01,0.46-0.24,0.92-0.36,1.45c-0.06,0.24-0.06,0.47-0.11,0.75c-0.05,0.28-0.16,0.53-0.24,0.84c-0.16,0.6-0.35,1.39-0.63,2.18
		c-0.29,0.78-0.63,1.59-1.05,2.23c-0.14,0.33-0.09,0.53-0.23,0.85c-1.39,2.53-2.22,3.95-3.59,6.56c-0.4,0.5-0.41,0.88-0.82,1.1
		c-0.53,0.98-1.12,1.93-1.79,2.69c-0.12,0.41-0.24,0.79-0.44,1.2c-0.5,1-1.22,1.6-1.94,2.75c0.03-0.03-0.14-0.02-0.14,0.06
		c0,0.34-0.63,1.03-0.94,1.48c-0.45,0.64-1.27,1.8-2.03,2.86c-0.5,0.46-1,1.02-1.54,1.65c-0.6,0.5-1.18,1.1-1.78,1.68
		c-0.61,0.56-1.24,1.11-1.89,1.53c-0.24-0.09,0.12-0.34,0.05-0.48C141.02,199.77,140.51,200.42,140.76,200.02z M144.45,132.19
		c0.02,0.16,0.43-0.26,0.23,0.01c0.23,0.17-0.29,0.39-0.38,0.38c-0.23,0.21-0.42,0.27-0.61,0.36c-0.65,0.57-1.59,1.05-2.41,1.49
		c-0.46,0.26-0.55,0.51-0.96,0.63c-0.47,0.52-1.36,1.19-2.12,1.81c-0.92,0.38-1.19,0.78-1.94,0.9c-0.82,0.81-1.78,1.28-3.22,1.93
		c-1.51,0.53-2.85,1.19-4.42,1.67c-0.35,0-0.91,0.36-1.16,0.19c-0.36,0.29-1.11,0.38-1.54,0.44c-0.14,0.23-0.21,0.14-0.38,0.28
		c-0.93,0.18-1.62,0.45-2.52,0.89c-0.9,0.32-1.21,0.26-1.78,0.61c-0.36,0.09-0.51-0.01-0.78,0.18c-0.15,0.02-0.2,0.18-0.26,0.06
		c-0.4,0.02-0.47,0.17-0.65-0.02c-0.27,0.03-0.66,0.23-0.73,0c-0.13-0.25,0.32-0.18,0.49-0.26c0.06-0.14,0.35-0.16,0.49-0.26
		c0.25-0.04,0.56-0.16,0.71-0.08c0.26-0.23,0.64-0.24,1-0.4c0.16-0.08,0.29-0.18,0.48-0.27c0.19-0.09,0.37-0.13,0.58-0.23
		c0.82-0.38,2.08-0.97,3.16-1.08c0.23-0.09,0.3-0.25,0.53-0.34c1.98-0.46,3.1-0.82,4.97-1.74c0.45-0.09,0.59-0.35,0.95-0.24
		c0.68-0.4,1.41-0.7,2.1-0.91c0.2-0.24,0.4-0.47,0.65-0.66c0.63-0.47,1.29-0.59,2.09-1.12c-0.03,0.02,0.1,0.08,0.11,0.02
		c0.07-0.28,0.66-0.53,0.99-0.75c0.46-0.3,1.25-0.9,1.97-1.47c0.43-0.2,0.89-0.46,1.35-0.8c0.5-0.23,1-0.54,1.5-0.84
		c0.5-0.31,1-0.61,1.54-0.79C144.69,131.94,144.39,132.05,144.45,132.19z M129.38,180.54c0.14,0.26-0.48,0.21-0.56,0.16
		c-0.33,0.08-0.54,0.06-0.78,0.04c-0.92,0.24-2.06,0.19-3.08,0.24c-0.57,0.01-0.78,0.19-1.25,0.11c-0.71,0.28-1.92,0.41-2.96,0.63
		c-1.08-0.12-1.54,0.14-2.33-0.11c-0.6,0.16-1.19,0.23-1.85,0.26c-0.65,0.01-1.37-0.02-2.23-0.07c-1.72-0.26-3.34-0.3-5.1-0.61
		c-0.34-0.16-1.05-0.12-1.22-0.39c-0.49,0.1-1.26-0.17-1.71-0.33c-0.24,0.13-0.26,0.03-0.5,0.07c-0.99-0.26-1.79-0.37-2.88-0.38
		c-1.03-0.16-1.3-0.33-2.02-0.29c-0.4-0.08-0.5-0.26-0.85-0.19c-0.16-0.05-0.28,0.06-0.28-0.07c-0.4-0.17-0.53-0.07-0.62-0.31
		c-0.28-0.09-0.75-0.1-0.71-0.33c-0.02-0.28,0.4-0.01,0.6-0.01c0.13-0.09,0.41,0.02,0.6-0.01c0.26,0.08,0.62,0.11,0.73,0.26
		c0.36-0.08,0.74,0.09,1.16,0.11c0.19,0.01,0.37-0.03,0.6-0.03c0.23,0.01,0.43,0.06,0.67,0.06c0.97,0.04,2.5,0.11,3.61,0.51
		c0.27,0.03,0.41-0.07,0.68-0.04c2.15,0.51,3.41,0.73,5.67,0.81c0.48,0.13,0.75-0.04,1.04,0.22c0.86-0.01,1.72,0.03,2.48,0.19
		c0.31-0.11,0.61-0.23,0.97-0.28c0.85-0.13,1.54,0.11,2.58-0.01c-0.03,0,0.05,0.12,0.09,0.08c0.21-0.21,0.92-0.14,1.33-0.19
		c0.59-0.07,1.67-0.2,2.65-0.4c0.51,0.03,1.09,0.01,1.71-0.09c1.19,0.08,2.54-0.23,3.75-0.07c0.13,0.23-0.22,0.19-0.23,0.34
		C129.09,180.58,129.71,180.39,129.38,180.54z M275.9,195.65c0.28,0.38-0.82,0.27-1.25,0.4c-0.19,0.21-0.9,0.26-1.27,0.38
		c-0.63,0.03-1.42,0.14-1.75-0.01c-0.75,0.3-1.67,0.13-2.61,0.24c-0.45,0.05-0.82,0.14-1.32,0.18c-0.51,0.03-0.98-0.01-1.54,0.02
		c-2.21,0.08-5.74-0.06-8.31-0.88c-0.61-0.09-0.94,0.03-1.55-0.07c-4.93-1.27-7.71-2.13-12.77-3.24c-1.03-0.42-1.67-0.28-2.28-0.79
		c-0.37-0.06-0.73-0.13-1.1-0.18c0.03-0.12,0.06-0.23,0.08-0.34l-0.43,0.29c0.12,0.02,0.23,0.04,0.35,0.06
		c-0.3,1.3-0.7,2.56-1.16,3.69c-0.03,0.74-0.05,1.45-0.21,2.23c-0.4,1.92-1.23,3.34-1.93,5.62c0.02-0.07-0.21,0.04-0.18,0.17
		c0.12,0.56-0.56,2.05-0.88,2.95c-0.44,1.29-1.25,3.67-1.99,5.83c-0.56,1.05-1.1,2.26-1.64,3.59c-1.34,2.38-2.5,5.32-4.04,7.56
		c-0.26,0.02-0.19-0.23-0.14-0.45c-0.06-0.06-0.12-0.14-0.18-0.23c-0.16,0.26-0.34,0.76-0.21,0.21c-0.22,0.01-0.16-0.26-0.03-0.55
		c-0.03-0.03-0.06-0.06-0.08-0.09c-0.25-0.01-0.52-0.48-0.77-0.64c-0.28-0.38-0.69-0.82-0.69-1.12c-0.53-0.32-0.84-0.94-1.33-1.45
		c-0.23-0.24-0.49-0.4-0.75-0.68c-0.26-0.28-0.46-0.57-0.74-0.88c-1.12-1.22-2.81-3.25-3.53-5.15c-0.26-0.39-0.53-0.48-0.78-0.88
		c-1.64-3.44-2.55-5.41-4.36-8.85c-0.22-0.82-0.66-1.1-0.55-1.74c-0.71-1.29-1.26-2.66-1.58-3.96c-0.38-0.42-0.74-0.83-1.03-1.35
		c-0.73-1.28-0.84-2.52-1.56-4.16c0.02,0.05,0.14-0.14,0.05-0.19c-0.41-0.24-0.71-1.43-0.96-2.1c-0.38-0.95-1.07-2.7-1.71-4.3
		c-0.16-0.88-0.39-1.85-0.71-2.88c-0.25-2.04-0.96-4.31-0.9-6.38c0.32-0.22,0.33,0.36,0.55,0.38c0.24,0.1-0.15-0.93,0.14-0.37
		c0.37-0.24,0.4,0.79,0.33,0.93c0.18,0.53,0.16,0.9,0.19,1.3c0.5,1.51,0.75,3.41,1.12,5.1c0.21,0.95,0.56,1.25,0.6,2.04
		c0.64,1.11,1.39,3.01,2.19,4.6c0.4,1.79,1,2.39,1.11,3.75c1.19,1.72,1.86,3.52,3,6.14c0.97,2.75,2.27,5.13,3.55,7.83
		c0.13,0.62,0.87,1.54,0.71,2.02c0.6,0.57,1.07,1.86,1.37,2.6c0.41,0.19,0.31,0.33,0.61,0.58c0.77,1.55,1.56,2.66,2.81,3.99
		c1.05,1.39,1.22,1.91,2.13,2.66c0.41,0.54,0.36,0.85,0.86,1.18c0.14,0.24,0.4,0.22,0.29,0.39c0.34,0.62,0.62,0.65,0.51,1.04
		c0.04,0.07,0.1,0.14,0.16,0.21c0.09-0.14,0.18-0.26,0.22-0.29c0.26-0.71,0.53-1.1,0.81-1.56c0.75-1.99,1.98-4.25,2.99-6.34
		c0.55-1.17,0.53-1.74,1.1-2.62c0.36-1.66,1.27-4.24,1.88-6.54c1.05-2.21,1.07-3.3,1.99-4.84c0.4-2.68,1.2-5.09,2.08-8.7l0.01-0.04
		c0.13-0.52,0.65-0.85,1.17-0.74c0.05,0.01,0.11,0.03,0.18,0.04c1.99,0.5,3.78,1.02,5.64,1.5c1.84,0.48,3.69,0.96,5.64,1.47
		c0.75,0.37,2.33,0.5,2.69,0.95c1.09-0.01,2.82,0.56,3.83,0.88c0.55-0.16,0.59,0,1.11-0.04c1.12,0.28,2.14,0.44,3.18,0.54
		c1.03,0.13,2.1,0.11,3.3,0.09c2.31,0.08,3,0.28,4.52-0.03c0.45-0.01,0.75,0.05,1.03,0.08c0.28,0.01,0.53,0,0.89-0.12
		c0.36,0.01,0.54-0.22,0.63-0.04c0.93,0.06,1.16-0.19,1.5,0.09C274.82,195.6,275.79,195.31,275.9,195.65z M247.75,150.06
		c-0.11,0.02-0.21-0.11-0.31-0.2c0.12,0.03,0.24,0.05,0.35,0.08C247.83,150.02,247.82,150.08,247.75,150.06z M181.01,116.64
		c-0.06-0.09,0.03-0.34,0.1-0.58c0.07,0.08,0.14,0.14,0.21,0.21C181.17,116.56,181.02,116.8,181.01,116.64z M178.28,102.6
		c0.17-0.01,0.68,0.31,1.12,0.58c-0.01,0.06-0.02,0.12-0.03,0.18c-0.01,0.06-0.01,0.11-0.02,0.16
		C178.78,103.09,177.96,102.5,178.28,102.6z M178.42,101.97c-0.01-0.01-0.01-0.01-0.02-0.01h0.01
		C178.41,101.97,178.42,101.97,178.42,101.97z M171.66,97.77c-0.85-1.98-1.92-4.04-3.16-6.03c-1.34-2.17-2.92-4.23-4.45-6.05
		c-1.75-1.82-3.43-3.4-4.88-4.83c-3.06-2.49-6.39-5.14-8.07-6.73c-1.22-1.09-2.97-3.2-3.75-3.64c-0.17-0.09-0.24-0.45-0.16-0.36
		c-1.39-1.5-2.47-2.83-3.57-4.05c-1.02-1.15-1.81-2.38-2.64-3.76c-0.67-1.14-1.24-2.14-1.75-3.26c-0.11-0.51-0.2-1.03-0.27-1.57
		c-0.06-0.53-0.14-1.08-0.08-1.56c0.01-0.07,0.03-0.14,0.05-0.21c0.25,0.18,0.51,0.34,0.79,0.49c0.35,0.21,0.7,0.43,1,0.65
		c0.35,0.2,0.65,0.41,0.91,0.61c0.55,0.31,1.15,0.66,1.47,0.88c0.22,0.16,0.56,0.46,0.73,0.46c0.04,0,0.04,0.08,0.03,0.07
		c0.54,0.4,0.82,0.75,1.27,1.07c0.19,0.13,0.36,0.21,0.56,0.3c0.33,0.38,0.71,0.78,1.13,1.13c0.06,0.23,0.24,0.28,0.42,0.53
		c1.05,1,1.58,1.64,2.44,2.77c0.12,0.13,0.22,0.15,0.34,0.28c0.4,0.64,1.11,1.32,1.56,1.75c0.11,0.11,0.19,0.21,0.3,0.31
		c0.11,0.09,0.2,0.16,0.29,0.24c0.19,0.19,0.33,0.41,0.53,0.53c0.01,0.11,0.17,0.27,0.28,0.41c0.09,0.06,0.2,0.23,0.29,0.24
		c0.1,0.09,0.22,0.37,0.29,0.24c0.08-0.08-0.14-0.28-0.25-0.43c0.03-0.14-0.07-0.16-0.21-0.38c0.03-0.06-0.06-0.06-0.11-0.14
		c-0.19-0.12-0.18-0.23-0.35-0.43c-0.36-0.28-0.43-0.47-0.88-0.96c-0.51-0.46-0.86-0.85-1.25-1.38c-0.13-0.08-0.1-0.13-0.26-0.19
		c-0.16-0.25-0.44-0.7-0.7-0.87c0.01-0.18-0.34-0.46-0.45-0.68c-0.73-0.88-1.49-1.6-2.23-2.43c-0.79-0.76-1.34-1.27-2.04-1.64
		c-0.31-0.41-0.6-0.53-1.12-0.99c-0.58-0.36-1.25-0.75-1.69-0.94c-0.21-0.21-0.38-0.22-0.68-0.43c-0.26-0.19-0.55-0.39-0.84-0.56
		c-0.28-0.16-0.56-0.34-0.85-0.45c-0.13-0.09-0.23-0.17-0.43-0.25c-0.01-0.02-0.08-0.08-0.16-0.13c0.02-0.03,0.03-0.07,0.04-0.1
		c0.1-0.15,0.26-0.24,0.49-0.31c0.46-0.13,1.03-0.13,1.59-0.12c-0.01,0-0.02-0.01-0.03-0.01l0.43-0.34
		c-0.03,0.19-0.19,0.34-0.38,0.34h-0.01h-0.01c0.95,0.11,1.88,0.42,2.73,0.91c0.78,0.92,1.67,1.35,2.9,2.82
		c0.79,0.78,1.56,1.54,2.36,2.19c0.85,0.65,1.59,1.17,2.35,1.73c0.74,0.55,1.43,1.12,2.12,1.66c0.68,0.55,1.32,1.12,1.98,1.67
		c2.56,2.28,4.97,4.69,7.63,8.07c0.68,0.8,1.17,1.05,1.81,1.89c1.27,1.88,2.72,4.04,4.05,6.16c1.35,2.11,2.5,4.24,3.37,5.9
		c0.41,0.86,0.71,1.61,1.09,2.39c0.34,0.78,0.67,1.35,0.97,2.05c0.61,1.5,0.98,3.06,1.69,4.18c0.03,0.57,0.65,1.81,1.18,2.74
		c0.4,0.52,1.05,1.54,1.44,1.7c0.26,0.26,0.63,0.75,0.98,1.1c-0.18,0.26-0.28,0.53-0.34,0.78c-0.27-0.22-0.54-0.43-0.82-0.65
		c0,0,0.01,0,0.01-0.01c0.08-0.09-0.13-0.25-0.23-0.38c0.03-0.13-0.06-0.14-0.19-0.34c0.04-0.06-0.05-0.05-0.1-0.13
		c-0.17-0.1-0.16-0.21-0.31-0.38c-0.31-0.24-0.38-0.41-0.75-0.87c-0.43-0.43-0.71-0.8-0.98-1.32c-0.11-0.09-0.07-0.13-0.21-0.19
		c-0.11-0.24-0.27-0.68-0.48-0.87c0.05-0.16-0.21-0.47-0.26-0.68c-0.46-0.9-0.92-1.7-1.29-2.61c-0.43-0.88-0.7-1.47-1.13-2.03
		c-0.08-0.46-0.29-0.65-0.49-1.24c-0.33-0.51-0.66-1.12-0.93-1.46c-0.05-0.26-0.18-0.34-0.3-0.65c-0.21-0.55-0.41-1.17-0.68-1.64
		c-0.04-0.13-0.06-0.25-0.15-0.42c0.01-0.05-0.07-0.39-0.18-0.29c-0.13-0.16,0.06,0.15-0.02,0.13c-0.08,0.01-0.12-0.18-0.21-0.09
		c0.13,0.68,0.5,1.39,0.7,2.05c0.16,0.33,0.29,0.63,0.38,0.92c0.29,0.5,0.6,1.05,0.75,1.36c0.11,0.21,0.25,0.6,0.4,0.67
		c0.03,0.01,0,0.08-0.01,0.06c0.29,0.53,0.36,0.94,0.63,1.35c0.11,0.17,0.24,0.3,0.38,0.43c0.14,0.43,0.34,0.88,0.6,1.31
		c-0.03,0.21,0.13,0.31,0.21,0.58c0.65,1.14,0.97,1.8,1.56,2.95c0.09,0.13,0.18,0.16,0.27,0.29c0.26,0.64,0.85,1.31,1.24,1.71
		c0.09,0.1,0.17,0.2,0.26,0.29c0.09,0.09,0.18,0.14,0.26,0.22c0.17,0.17,0.29,0.37,0.47,0.47c0.01,0.09,0.14,0.24,0.24,0.35
		C176.15,100.29,173.97,98.94,171.66,97.77z M140.35,54.21l-0.18,0.16c0.01-0.03,0.01-0.06,0.02-0.09
		C140.25,54.26,140.31,54.24,140.35,54.21z M103.03,114.75c-0.03,0.03-0.03,0.04-0.03,0.04c0-0.02,0.01-0.04,0.01-0.06
		C103.03,114.74,103.03,114.74,103.03,114.75z M197.29,102.36c-0.01,0.07-0.09,0.14-0.19,0.21c-0.01-0.08-0.04-0.15-0.06-0.23
		C197.21,102.29,197.33,102.27,197.29,102.36z M200.51,99.09c0.74-1.15,1.61-2.23,2.58-3.04c0.89-1,1.86-1.77,2.81-2.33
		c0.81-0.68,1.72-1.32,2.6-1.86c0.92-0.54,1.73-1.02,2.31-1.35c0.82-0.48,2.26-1.19,2.51-1.7c0.05-0.11,0.3-0.06,0.24-0.01
		c1.93-1.32,3.43-1.89,4.89-3.14c0.6-0.51,1.05-1.04,1.5-1.59c1.52-0.85,3.1-1.97,4.54-3.24c0.76-0.15,1.05-0.73,1.98-1.31
		c1.91-1.68,3.37-3.02,4.83-4.36c1.45-1.34,2.9-2.66,4.63-4.48c0.39-0.48,0.41-0.83,0.79-1.32c0.96-0.92,1.84-2.17,2.58-3.44
		c0.7-1.3,1.25-2.61,1.55-3.66c0.16-0.53,0.36-0.95,0.45-1.45c0.08-0.49,0.12-0.87,0.16-1.3c0.04-0.46,0.17-0.9,0.23-1.33
		c0.04-0.43,0.06-0.84-0.02-1.21c0.18-0.29,0.14-1.08,0.1-1.68c-0.15-0.36-0.15-1.05-0.39-1.21c-0.1-0.23-0.15-0.7-0.24-0.97
		c0.05,0,0.09,0,0.14,0c-0.04-0.03-0.07-0.05-0.11-0.08l0.21,0.08c-0.04,0-0.07,0-0.11,0c0.36,0.27,0.73,0.54,1.1,0.82
		c0.6,0.94,1.46,1.29,2.63,2.47c2.98,2.46,5.19,4.53,7.27,6.68c2.08,2.16,4.04,4.39,6.43,7.32c0.62,0.68,1.05,0.89,1.67,1.59
		c1.16,1.62,2.61,3.37,3.93,5.11c1.33,1.72,2.49,3.47,3.28,4.88c0.4,0.72,0.65,1.38,0.96,2.06c0.29,0.68,0.57,1.18,0.76,1.82
		c0.46,1.37,0.38,2.77,0.57,3.93c-0.19,0.48-0.21,1.69-0.41,2.62c0,0.6-0.34,1.62-0.29,1.99c-0.08,0.34-0.34,0.88-0.56,1.29
		c-0.01,0.01-0.01,0.03-0.03,0.04c-0.74-0.47-1.45-0.9-2.16-1.32c-1.16-0.68-2.31-1.32-3.66-1.97c-0.65-0.13-0.69-0.31-1.39-0.29
		c-0.61-0.28-1.47-0.64-2.38-0.87c-0.9-0.24-1.85-0.32-2.53-0.26c-0.55-0.43-2.57-0.3-3.61-0.46c-2.58-0.04-5.02,0.19-7.41,0.47
		c-2.39,0.3-4.75,0.6-7.2,0.9c-0.84,0.14-1.63,0.28-2.38,0.41c0.06-0.03,0.11-0.06,0.17-0.09c0.51-0.37,0.98-0.7,1.44-0.93
		c0.74-0.67,1.55-1.4,1.99-1.79c0.31-0.28,0.91-0.66,0.94-0.95c0.01-0.06,0.14-0.03,0.12,0c0.73-0.73,1.41-1,1.94-1.68
		c0.21-0.28,0.36-0.56,0.5-0.86c0.65-0.42,1.27-1.01,1.82-1.66c0.38-0.05,0.43-0.37,0.83-0.65c1.47-1.7,2.35-2.59,3.88-4.18
		c0.16-0.22,0.14-0.4,0.3-0.61c0.89-0.77,1.62-2.11,2.03-2.98c0.11-0.22,0.23-0.38,0.32-0.59c0.08-0.2,0.11-0.38,0.19-0.56
		c0.17-0.38,0.45-0.66,0.5-1.02c0.17-0.06,0.31-0.38,0.46-0.6c0.03-0.18,0.23-0.41,0.17-0.56c0.06-0.19,0.45-0.49,0.17-0.56
		c-0.21-0.1-0.36,0.33-0.53,0.56c-0.26,0-0.2,0.16-0.48,0.48c-0.13-0.04-0.05,0.11-0.15,0.24c-0.05,0.34-0.26,0.37-0.46,0.7
		c-0.21,0.66-0.45,0.86-0.98,1.71c-0.43,0.97-0.87,1.62-1.55,2.35c-0.06,0.23-0.16,0.19-0.17,0.46c-0.35,0.3-0.96,0.81-1.12,1.27
		c-0.31-0.01-0.65,0.59-0.97,0.78c-1.19,1.25-2.2,2.45-3.5,3.51c-1.19,1.15-2.01,1.87-2.68,2.89c-0.74,0.3-0.92,0.78-1.82,1.33
		c-0.68,0.78-1.57,1.54-2.03,2.14c-0.43,0.16-0.52,0.41-1,0.71c-0.86,0.51-1.86,1-2.58,1.56c-0.01,0.01-0.02,0.01-0.03,0.01
		c-2.48,0.49-4.54,1-6.63,1.72c-2.25,0.04-3.46,0.65-6.51,0.97c-1.44,0.37-3,0.72-4.46,1.03c-1.47,0.31-2.83,0.66-3.82,1.02
		c-1.31,0.09-1.89,0.46-3.48,0.83c-2.84,0.63-5.98,1.45-8.43,2.55c-0.32,0.09-0.62,0.16-0.95,0.28c0.06-0.1,0.11-0.2,0.16-0.3
		C199.78,100.26,200.13,99.66,200.51,99.09z M276.45,194.67c0.24-0.34-0.01-0.48-0.15-1.24c0.16-0.13-0.1-0.21-0.18-0.5
		c-0.4-0.49-0.28-0.8-0.56-1.47c-0.76-1.02-0.82-1.59-1.75-3.2c-1.15-1.54-1.93-2.72-2.75-4.33c-0.31-0.27-0.22-0.4-0.65-0.6
		c-0.34-0.75-0.89-2.08-1.56-2.63c0.11-0.5-0.73-1.4-0.95-2.03c-1.65-2.67-3.4-4.9-4.99-7.49c-1.74-2.44-2.9-4.08-4.52-5.5
		c-0.49-1.33-1.24-1.78-2.16-3.44c-1.25-1.36-2.53-3.03-3.5-3.95c-0.28-0.77-0.7-0.98-1.2-1.84c-0.42-0.79-0.86-1.63-1.29-2.45
		c-0.43-0.82-0.86-1.61-1.32-2.29c-0.14-0.39-0.23-0.75-0.56-1.24c0.01-0.06-0.04-0.26-0.12-0.46c1.82,0.37,3.69,0.68,5.35,0.71
		c0.55,0.12,1.04,0.22,1.84,0.2c0.15,0.13,1.65,0.26,1.4-0.14c0.86-0.19-0.69,0.01-0.48-0.21c0.09-0.22,0.88-0.12,0.65-0.48
		c-2.72-0.38-5.97-0.64-8.7-1.33c-1.47-0.19-2.83-0.45-4.01-0.78c-2.34-0.27-4.9-0.68-6.29-0.95c-0.98-0.19-2.58-0.71-3.14-0.55
		c-0.12,0.04-0.26-0.18-0.19-0.17c-2.43-0.51-3.9-1.33-5.86-1.76c-0.8-0.2-1.52-0.28-2.28-0.36c-1.64-0.85-3.41-1.77-5.18-2.78
		c-0.41-0.7-1.08-0.8-1.92-1.59c-2.19-1.52-3.77-2.91-5.22-4.39c-1.44-1.49-2.77-3.07-4.3-5.19c-0.42-0.48-0.75-0.61-1.17-1.1
		c-1.42-2.39-3.86-5.1-5.49-6.73c-0.41-0.41-0.71-0.81-1.1-1.17c-0.38-0.36-0.73-0.58-1.06-0.9c-0.72-0.68-1.28-1.46-2.01-1.87
		c-0.11-0.36-0.74-0.91-1.2-1.37c-0.35-0.21-0.86-0.75-1.15-0.77c-0.16-0.11-0.36-0.32-0.56-0.51c0.01-0.02,0.03-0.03,0.04-0.05
		c0.24-0.36,0.33-0.73,0.36-1.04c0.07-0.61,0.05-1.13,0.04-1.61c-0.02-0.47,0.02-0.87-0.04-1.3c-0.05-0.42-0.16-0.73-0.21-1.1
		c-0.11-0.78-0.02-1.55-0.28-2.18c0.17-0.27,0.07-0.93,0.08-1.46c-0.11-0.32-0.03-0.92-0.21-1.1c-0.04-0.4,0.29-1.28-0.13-1.15
		c-0.34-0.01-0.31,0.96-0.33,1.51c-0.33,0.27-0.14,0.5-0.22,1.3c-0.19,0.08,0.03,0.24,0.01,0.55c0.22,0.62,0.01,0.88,0.04,1.64
		c0.31,1.26,0.21,1.84,0.11,3.69c0.01,0.48,0.01,0.97-0.06,1.26c-0.08,0.3-0.2,0.46-0.52,0.57c-0.31,0.11-0.71,0.11-1.14,0.08
		c-0.43-0.03-0.87-0.09-1.34-0.18c-0.06,0.01-0.1,0.01-0.14,0.02c-0.02-0.01-0.04-0.01-0.06-0.02c-0.01-0.12-0.07-0.07-0.2-0.14
		c0.01-0.06-0.04-0.01-0.09-0.03c-0.13,0.03-0.14-0.06-0.28-0.11c-0.25-0.01-0.34-0.08-0.66-0.23c-0.38-0.08-0.63-0.22-0.9-0.46
		c-0.09-0.01-0.07-0.06-0.18-0.04c-0.11-0.14-0.28-0.37-0.46-0.41c0.03-0.14-0.19-0.26-0.24-0.38c-0.41-0.46-0.81-0.87-1.08-1.4
		c-0.33-0.5-0.5-0.85-0.82-1.16c0.01-0.3-0.18-0.4-0.23-0.78c-0.21-0.31-0.33-0.72-0.49-0.96c0.04-0.17-0.05-0.24-0.06-0.45
		c-0.01-0.18,0.01-0.38,0.01-0.56c0.01-0.19,0-0.37-0.01-0.53c0.03-0.08,0.06-0.15,0.05-0.27c0.03-0.03,0.11-0.23-0.03-0.21
		c-0.04-0.13-0.01,0.1-0.08,0.06c-0.07-0.02-0.03-0.14-0.14-0.12c-0.09,0.21-0.14,0.45-0.17,0.68c-0.01,0.24-0.01,0.48-0.05,0.71
		c0.04,0.24,0.06,0.45,0.06,0.65c0.12,0.36,0.26,0.75,0.34,0.95c0.06,0.14,0.11,0.41,0.23,0.45c0.03,0.01-0.02,0.06-0.03,0.04
		c0.19,0.34,0.18,0.63,0.4,0.88c0.09,0.1,0.19,0.17,0.3,0.24c0.08,0.28,0.25,0.55,0.45,0.79c-0.03,0.16,0.11,0.18,0.18,0.35
		c0.56,0.62,0.86,0.97,1.45,1.56c0.08,0.06,0.16,0.04,0.24,0.09c0.28,0.34,0.83,0.56,1.18,0.64c0.09,0.03,0.15,0.07,0.24,0.08
		c0.08,0.01,0.15,0,0.23,0.01c0.11,0.02,0.2,0.07,0.29,0.09c-0.04,0.01-0.1,0.03-0.16,0.06c-0.84-0.24-2.38-0.67-3.32-0.36
		c-0.2-0.18-0.66-0.2-1.17-0.13c-0.5,0.06-1.03,0.23-1.42,0.28c-0.87,0.32-1.55,0.66-2.07,0.66c-0.48,0.01-1-0.26-1.39-0.73
		c-0.78-0.9-0.9-2.46-0.98-4.06c-0.31-3.12-0.17-5.2-0.5-7.47c0.12-0.34,0.21-0.59,0.31-0.74c0.09-0.14,0.14-0.19,0.32-0.31
		c0.18-0.11,0.45-0.19,0.84-0.3c0.38-0.1,0.8-0.2,1.3-0.28c0.81-0.34,1.67-0.63,2.51-0.9c-0.21,0.33-0.4,0.65-0.5,0.85
		c-0.1,0.18-0.31,0.45-0.26,0.59c0.01,0.03-0.06,0.04-0.06,0.02c-0.19,0.46-0.45,0.71-0.53,1.12c-0.04,0.16-0.03,0.32-0.02,0.48
		c-0.19,0.32-0.31,0.71-0.36,1.12c-0.14,0.12-0.08,0.26-0.17,0.48c-0.11,1.08-0.16,1.67-0.16,2.73c0.02,0.13,0.09,0.18,0.11,0.31
		c-0.04,0.57,0.23,1.27,0.44,1.67c0.05,0.11,0.08,0.2,0.13,0.29c0.06,0.09,0.12,0.15,0.16,0.23c0.1,0.17,0.14,0.36,0.27,0.47
		c-0.03,0.08,0.06,0.22,0.11,0.34c0.06,0.06,0.11,0.19,0.19,0.21c0.06,0.07,0.09,0.3,0.19,0.2c0.1-0.06-0.04-0.23-0.09-0.34
		c0.07-0.11-0.01-0.12-0.06-0.31c0.05-0.04-0.03-0.05-0.06-0.12c-0.13-0.11-0.08-0.19-0.15-0.36c-0.21-0.25-0.21-0.4-0.37-0.84
		c-0.23-0.44-0.34-0.8-0.36-1.27c-0.06-0.09-0.01-0.12-0.11-0.21c0.01-0.22,0.06-0.59-0.04-0.8c0.12-0.09,0.04-0.41,0.1-0.57
		c0.05-0.8,0.1-1.54,0.36-2.27c0.19-0.74,0.4-1.21,0.48-1.77c0.26-0.26,0.26-0.5,0.56-0.89c0.18-0.45,0.47-0.92,0.6-1.25
		c0.14-0.09,0.18-0.19,0.26-0.31c0.81-0.24,1.56-0.45,2.16-0.61c0.85,0.14,1.27-0.1,2.35,0.02c0.95,0.13,1.94,0.34,2.85,0.66
		c0.45,0.16,0.89,0.33,1.24,0.56c0.33,0.22,0.61,0.53,0.79,0.85c0.09,0.37,0.07,0.69,0.11,1.26c-0.08,0.11-0.4,1.15,0.03,1.05
		c0.08,0.69,0.08-0.53,0.26-0.33c0.21,0.09,0.01,0.71,0.38,0.6c0.19-0.53,0.37-1.12,0.38-1.81c0-0.04-0.01-0.09-0.01-0.14
		c3.14-0.91,6.6-2.32,9.76-2.96c1.7-0.54,3.3-0.91,4.73-1.12c1.35-0.38,2.78-0.71,4.09-0.96c1.34-0.26,2.53-0.49,3.37-0.65
		c1.19-0.23,3.22-0.46,3.76-0.88c0.12-0.09,0.38,0.04,0.29,0.06c2.92-0.66,4.94-0.72,7.29-1.39c0.96-0.28,1.77-0.6,2.61-0.96
		c2.21-0.22,4.64-0.63,7.04-1.12c0.93,0.21,1.62-0.18,3.01-0.22c3.2-0.53,5.71-0.82,8.2-0.88c1.24-0.03,2.48-0.01,3.79,0.09
		c0.65,0.05,1.33,0.13,2.03,0.23c0.35,0.04,0.69,0.12,1.04,0.18c0.35,0.09,0.71,0.16,1.07,0.28c0.73,0.16,1.12,0.08,1.84,0.31
		c1.48,0.68,3.15,1.5,4.72,2.4c1.57,0.9,3.04,1.86,4.14,2.66c0.14,0.11,0.27,0.21,0.4,0.31l0.19,0.15c0.06,0.05,0.07,0.08,0.11,0.12
		c0.14,0.21,0.23,0.5,0.32,0.78c0.18,0.58,0.33,1.04,0.41,1.59c0.09,0.63,0.1,1.26,0.13,1.85c-0.03-0.03-0.06-0.05-0.11-0.08
		c0.01-0.07-0.09-0.06-0.2-0.14c-0.26-0.11-0.32-0.23-0.61-0.41c-0.55-0.23-0.71-0.45-1.49-0.86c-0.82-0.39-1.43-0.69-2.17-1.13
		c-0.19-0.05-0.19-0.11-0.4-0.12c-0.34-0.21-0.92-0.57-1.31-0.66c-0.1-0.19-0.68-0.34-0.93-0.51c-1.37-0.62-2.69-1.01-4.08-1.47
		c-0.7-0.18-1.29-0.34-1.83-0.43c-0.55-0.09-1.04-0.16-1.55-0.15c-0.63-0.23-1.03-0.18-1.93-0.33c-0.89-0.03-1.91-0.02-2.53,0.04
		c-0.38-0.07-0.58,0.01-1.05-0.01c-0.43-0.03-0.88-0.04-1.33-0.04c-0.45-0.01-0.88-0.01-1.27,0.06c-0.19-0.01-0.38-0.03-0.65,0.01
		c-0.06-0.03-0.57-0.06-0.48,0.08c-0.29,0.08,0.24-0.01,0.17,0.06c-0.03,0.08-0.31,0.06-0.23,0.17c0.5,0.05,1.03,0.04,1.57,0.02
		c0.54-0.01,1.08,0,1.57,0.03c0.53-0.02,1.02,0.01,1.44,0.05c0.83-0.03,1.75-0.01,2.25,0.01c0.35,0.03,0.94,0.13,1.13,0.04
		c0.04-0.02,0.1,0.05,0.08,0.04c0.87,0.09,1.44,0.27,2.14,0.34c0.29,0.03,0.55,0.03,0.82,0.01c0.63,0.19,1.32,0.4,2.03,0.55
		c0.21,0.19,0.45,0.16,0.83,0.33c1.83,0.54,2.83,0.96,4.46,1.85c0.21,0.09,0.33,0.08,0.55,0.18c0.41,0.28,0.9,0.55,1.39,0.78
		c0.48,0.25,0.95,0.48,1.32,0.65c0.19,0.09,0.33,0.18,0.5,0.27c0.16,0.08,0.3,0.13,0.45,0.21c0.31,0.16,0.58,0.38,0.85,0.48
		c0.06,0.12,0.32,0.27,0.5,0.41c0.03,0.01,0.07,0.03,0.11,0.06c0.03,0.38,0.09,0.74,0.2,1.07c-0.14,0.41-0.02,1.41-0.01,2.21
		c0.12,0.48,0.06,1.37,0.24,1.65c0.08,0.57-0.22,1.91,0.19,1.67c0.36-0.05,0.23-1.38,0.26-2.22c0.32-0.41,0.13-0.74,0.18-1.96
		c0.19-0.13-0.04-0.36-0.04-0.84c-0.13-0.46-0.16-0.83-0.14-1.15c0.01-0.32,0.06-0.71,0.04-1.29c-0.18-0.98-0.24-1.71-0.36-2.59
		c-0.03-0.22-0.07-0.46-0.13-0.71c-0.03-0.13-0.06-0.26-0.11-0.42c-0.03-0.08-0.05-0.15-0.08-0.23c-0.04-0.09-0.09-0.18-0.13-0.27
		c-0.03-0.08-0.14-0.21-0.23-0.31c-0.11-0.13-0.14-0.14-0.21-0.2c-0.11-0.09-0.23-0.19-0.34-0.3c-0.24-0.21-0.51-0.43-0.8-0.66
		c-0.36-0.25-0.72-0.48-1.07-0.7c0.08-0.12,0.16-0.26,0.23-0.41c0.25-0.52,0.45-1.17,0.61-1.67c0.45-0.41,0.39-0.87,0.71-2.34
		c0.21-0.12,0.03-0.45,0.11-1.03c-0.14-1.19,0.11-1.66-0.03-3.14c-0.14-0.61-0.28-1.17-0.44-1.64c-0.15-0.48-0.28-0.94-0.44-1.43
		c-0.31-0.98-0.7-2.11-1.57-3.71c-0.99-1.59-1.95-2.9-2.9-4.18c-0.96-1.27-1.91-2.51-2.97-3.91c-0.59-0.51-0.55-0.69-1.24-1.11
		c-0.93-1.29-2.56-3.5-3.84-4.51c-0.19-0.75-1.96-2.35-2.69-3.35c-4.03-4.35-8.1-7.88-12.5-11.59c-0.14-0.13-0.33-0.2-0.54-0.21
		h-0.04c-0.16-0.01-0.32-0.02-0.49-0.03c-3.01-0.08-5.54,0.29-7.74,0.91c-2.2,0.63-4.09,1.5-5.85,2.64
		c-1.29,0.45-2.24,0.97-3.25,1.61c-1.02,0.65-2.09,1.42-3.64,2.46c-1.36,1.2-2.78,2.52-4.03,3.83c-1.25,1.3-2.29,2.61-3.03,3.64
		c-1.16,1.05-1.49,1.79-2.72,3.3c-2.23,2.67-4.52,5.8-6.05,8.62c-0.45,0.65-0.9,1.22-1.41,2.23c-0.21,0.16-1.37,1.85-0.86,1.78
		c-0.45,1.15,0.48-0.84,0.51-0.47c0.13,0.22-0.53,1.16-0.08,1.08c2.35-3.27,4.65-7.39,7.24-10.47c1.22-1.75,2.46-3.27,3.67-4.51
		c2.04-2.66,4.66-5.25,6.2-6.56c1.07-0.94,3.06-2.26,3.49-2.9c0.09-0.14,0.41-0.15,0.33-0.09c2.89-2.03,5.15-2.78,7.74-3.91
		c0.53-0.24,1.03-0.46,1.52-0.67c0.48-0.23,0.97-0.43,1.46-0.64c1.97-0.29,4.11-0.46,6.3-0.46c0,0.01-0.01,0.01-0.01,0.02
		c-0.15,0.03-0.34,0.09-0.49,0.13c-0.16-0.07-0.26,0.02-0.66,0.09c-0.06-0.05-0.12,0.04-0.28,0.07c-0.3,0.14-0.44,0.12-0.82,0.23
		c-0.61,0.29-0.93,0.29-1.89,0.66c-0.97,0.42-1.69,0.73-2.65,1.05c-0.19,0.12-0.24,0.08-0.41,0.24c-0.43,0.14-1.19,0.38-1.58,0.64
		c-0.23-0.03-0.82,0.33-1.16,0.43c-0.81,0.34-1.53,0.76-2.27,1.14c-0.72,0.41-1.43,0.8-2.18,1.23c-1.43,0.89-2.36,1.54-3.21,2.37
		c-0.69,0.36-0.98,0.71-1.84,1.34c-0.76,0.7-1.6,1.54-2.07,2.09c-0.36,0.26-0.47,0.48-0.88,0.85c-0.38,0.33-0.76,0.69-1.13,1.05
		c-0.37,0.36-0.73,0.71-1.02,1.08c-0.17,0.16-0.33,0.29-0.53,0.55c-0.07,0.03-0.51,0.43-0.34,0.45c-0.19,0.3,0.19-0.21,0.18-0.09
		c0.03,0.08-0.22,0.29-0.08,0.31c0.45-0.38,0.88-0.83,1.32-1.28c0.45-0.45,0.9-0.88,1.33-1.27c0.43-0.45,0.85-0.82,1.24-1.15
		c0.68-0.7,1.45-1.45,1.89-1.83c0.31-0.27,0.88-0.68,0.97-0.89c0.02-0.04,0.12-0.05,0.09-0.03c0.79-0.65,1.39-0.99,2.04-1.52
		c0.26-0.22,0.47-0.43,0.69-0.66c0.66-0.38,1.39-0.81,2.08-1.3c0.33-0.05,0.5-0.26,0.93-0.46c1.91-1.15,3.05-1.69,5.08-2.46
		c0.24-0.11,0.33-0.22,0.58-0.33c0.55-0.17,1.17-0.39,1.75-0.65c0.58-0.24,1.15-0.47,1.59-0.66c0.22-0.09,0.41-0.16,0.61-0.24
		c0.2-0.08,0.34-0.16,0.52-0.23c0.38-0.14,0.77-0.22,1.07-0.39c0.15,0.03,0.48-0.09,0.75-0.14c0.15-0.08,0.46-0.13,0.53-0.21
		c0.06-0.03,0.17-0.04,0.26-0.06c0.01,0.09,0.02,0.19,0.04,0.29c0.06,0.31,0.22,0.66,0.22,0.97c-0.14,0.17-0.16,0.3-0.14,0.5
		c0.01,0.19,0.1,0.46,0.03,0.89c-0.19,0.08,0.03,0.25,0,0.58c0.12,0.34,0.06,0.58,0.01,0.83c-0.06,0.25-0.13,0.52-0.19,0.93
		c-0.02,0.71-0.06,1.24-0.27,1.82c-0.1,0.29-0.18,0.61-0.33,0.98c-0.08,0.2-0.18,0.43-0.27,0.67c-0.08,0.06-0.16,0.13-0.31,0.21
		c-0.08-0.03-0.11,0.09-0.25,0.19c-0.25,0.27-0.41,0.3-0.76,0.57c-0.54,0.53-0.84,0.68-1.72,1.4c-0.87,0.78-1.56,1.34-2.46,1.99
		c-0.17,0.18-0.23,0.16-0.37,0.38c-0.43,0.28-1.16,0.76-1.51,1.15c-0.25,0.04-0.79,0.58-1.13,0.78c-1.54,1.2-2.84,2.39-4.3,3.61
		c-1.38,1.26-2.29,2.14-3.1,3.19c-0.68,0.53-0.96,0.96-1.79,1.8c-0.73,0.9-1.52,1.95-1.97,2.63c-0.36,0.35-0.45,0.6-0.84,1.08
		c-0.36,0.43-0.73,0.88-1.08,1.35c-0.35,0.46-0.7,0.91-0.95,1.36c-0.16,0.2-0.31,0.38-0.49,0.69c-0.07,0.05-0.48,0.56-0.31,0.55
		c-0.17,0.36,0.18-0.26,0.18-0.14c0.04,0.08-0.19,0.36-0.04,0.34c0.42-0.5,0.83-1.06,1.23-1.64c0.42-0.56,0.85-1.12,1.26-1.62
		c0.41-0.56,0.81-1.05,1.19-1.47c0.65-0.88,1.38-1.82,1.81-2.32c0.3-0.35,0.85-0.9,0.93-1.14c0.02-0.05,0.12-0.08,0.1-0.05
		c0.76-0.85,1.36-1.34,1.98-2.03c0.25-0.29,0.45-0.56,0.65-0.84c0.65-0.55,1.36-1.17,2.03-1.84c0.33-0.14,0.49-0.4,0.92-0.71
		c1.84-1.68,2.94-2.55,4.9-3.98c0.23-0.19,0.3-0.33,0.53-0.52c1.08-0.7,2.33-1.81,3.13-2.5c0.21-0.18,0.38-0.31,0.56-0.48
		c0.18-0.16,0.3-0.3,0.46-0.44c0.34-0.3,0.72-0.53,0.97-0.82c0.09-0.03,0.23-0.12,0.37-0.23c-0.02,0.04-0.03,0.08-0.04,0.12
		c-0.71,2.19-1.64,3.75-3.1,5.44c-0.19,0.48-0.36,0.43-0.47,0.97c-0.73,0.73-2.04,1.91-2.58,2.82c-0.56,0.08-1.47,1.32-2.15,1.75
		c-2.87,2.63-5.49,5.03-8.63,7.17c-2.98,2.26-5.08,3.65-7.03,5.51c-1.65,0.61-2.31,1.46-4.46,2.47c-0.94,0.68-1.98,1.33-2.97,1.96
		c-0.01,0-0.01,0.01-0.01,0.01c0.04-0.04,0.07-0.09,0.11-0.14c0.12-0.22,0.24-0.41,0.38-0.57c0.16-0.36,0.34-0.76,0.46-0.97
		c0.08-0.14,0.26-0.36,0.23-0.49c-0.01-0.03,0.06-0.03,0.05-0.01c0.19-0.37,0.44-0.54,0.57-0.85c0.06-0.13,0.08-0.26,0.09-0.4
		c0.23-0.22,0.44-0.49,0.61-0.79c0.17-0.03,0.16-0.17,0.31-0.29c0.5-0.75,0.84-1.13,1.48-1.75c0.06-0.09,0.05-0.16,0.11-0.25
		c0.38-0.28,0.7-0.8,0.9-1.14c0.05-0.09,0.11-0.14,0.15-0.23c0.04-0.08,0.06-0.15,0.1-0.22c0.09-0.14,0.23-0.24,0.26-0.39
		c0.08,0,0.16-0.12,0.24-0.19c0.03-0.07,0.13-0.14,0.11-0.22c0.04-0.08,0.23-0.15,0.11-0.22c-0.09-0.08-0.18,0.09-0.27,0.17
		c-0.12-0.03-0.1,0.04-0.24,0.14c-0.06-0.03-0.03,0.04-0.08,0.08c-0.04,0.14-0.13,0.13-0.24,0.25c-0.11,0.27-0.24,0.32-0.5,0.65
		c-0.21,0.38-0.4,0.64-0.71,0.92c-0.03,0.09-0.08,0.08-0.07,0.19c-0.15,0.11-0.41,0.31-0.47,0.51c-0.14-0.02-0.26,0.24-0.4,0.32
		c-0.48,0.53-0.83,1.07-1.3,1.58c-0.4,0.55-0.67,0.92-0.8,1.42c-0.28,0.19-0.28,0.41-0.57,0.73c-0.16,0.4-0.37,0.83-0.44,1.13
		c-0.14,0.13-0.13,0.24-0.25,0.43c-0.24,0.33-0.53,0.68-0.67,1.03c-0.03,0.04-0.06,0.07-0.09,0.11c-0.65,0.45-1.22,0.91-1.63,1.33
		c-0.95,0.43-1.21,0.93-2.2,1.72c-0.88,0.71-1.79,1.54-2.55,2.45c-0.77,0.91-1.41,1.9-1.85,2.87c-0.3,0.43-0.58,0.83-0.83,1.54
		c-0.07,0.06-0.28,0.39-0.4,0.7c-0.01,0.01-0.01,0.03-0.01,0.04c-0.27,0.07-0.63,0.19-0.9,0.33c-0.13-0.35-0.32-0.69-0.58-0.97
		c-0.25-0.28-0.61-0.54-0.92-0.71c-0.32-0.18-0.63-0.31-0.95-0.43c-0.62-0.23-1.22-0.4-1.81-0.55c-1.26-0.16-2.38-0.25-3.45-0.33
		c-2.04,0.21-4.08,0.85-5.18,1.17c-0.78,0.23-2.11,0.47-2.42,0.88c-0.06,0.09-0.26-0.04-0.21-0.06c-0.41,0.14-0.91,0.32-1.31,0.7
		c-0.07-0.08-0.14-0.15-0.21-0.23c-0.39-0.41-0.85-0.92-1.15-1.37c-0.03-0.61-0.46-0.82-1.08-2.24c0.11-0.21-0.23-0.4-0.45-0.98
		c-0.67-1.07-0.63-1.62-1.15-3.1c-0.55-1.21-0.91-2.13-1.3-3.22c-0.19-0.55-0.41-1.13-0.7-1.8c-0.28-0.68-0.59-1.47-1.05-2.38
		c-2.05-3.7-3.73-6.38-5.94-9.74c-0.61-0.64-0.6-0.83-1.32-1.38c-0.49-0.78-1.24-1.77-2-2.77c-0.8-0.95-1.62-1.91-2.37-2.47
		c-0.27-0.83-2.36-2.61-3.3-3.69c-2.53-2.41-5.2-4.5-7.82-6.42c-1.2-0.93-2.24-2.17-3.45-3.36c-0.61-0.6-1.25-1.19-2.01-1.72
		c-0.74-0.53-1.65-0.97-2.57-1.21c-0.33-0.08-0.66-0.14-0.93-0.17c-0.03-0.01-0.06,0-0.09,0l-0.53,0.45c-0.11-0.01-0.23-0.01-0.35,0
		c0.19-0.28,0.52-0.46,0.88-0.45l0.01-0.01c-0.41-0.01-0.83-0.01-1.29,0.03c-0.44,0.06-0.97,0.11-1.57,0.55
		c-0.01,0.01-0.03,0.03-0.04,0.04c-0.33,0.13-0.58,0.11-1.05,0.3c-0.88,0.57-1.34,0.67-2.62,1.5c-1.22,0.99-2.13,1.67-3.42,2.4
		c-0.22,0.25-0.32,0.19-0.5,0.51c-0.6,0.3-1.64,0.81-2.11,1.33c-0.38-0.04-1.12,0.64-1.61,0.85c-2.14,1.4-3.94,2.88-5.94,4.4
		c-1.87,1.61-3.07,2.8-4.01,4.3c-0.95,0.66-1.2,1.32-2.31,2.42c-0.85,1.26-1.86,2.67-2.35,3.63c-0.5,0.44-0.57,0.8-1.09,1.43
		c-0.94,1.12-2.01,2.35-2.71,3.51c-0.23,0.24-0.45,0.46-0.69,0.87c-0.11,0.04-0.7,0.68-0.4,0.73c-0.2,0.49,0.24-0.33,0.28-0.14
		c0.09,0.13-0.25,0.48,0.02,0.51c1.22-1.2,2.29-2.88,3.45-4.14c0.52-0.74,1.04-1.39,1.55-1.93c0.79-1.19,1.71-2.47,2.22-3.15
		c0.36-0.48,1.08-1.21,1.12-1.57c0.01-0.08,0.18-0.09,0.14-0.06c0.92-1.19,1.76-1.77,2.5-2.73c0.31-0.39,0.53-0.77,0.76-1.18
		c0.89-0.68,1.82-1.48,2.72-2.33c0.5-0.09,0.66-0.49,1.27-0.84c2.49-2.1,4.04-3.09,6.78-4.72c0.32-0.23,0.4-0.43,0.72-0.66
		c1.52-0.73,3.23-2.14,4.32-2.97c0.28-0.21,0.55-0.34,0.8-0.53c0.26-0.18,0.43-0.35,0.68-0.5c0.28-0.17,0.58-0.28,0.86-0.4
		c-0.11,0.25-0.18,0.5-0.21,0.74c-0.08,0.5-0.04,0.93,0,1.31c0.19,1.45,0.55,2.73,1.02,3.91c0.46,1.18,1.02,2.26,1.67,3.24
		c0.65,0.98,1.4,1.88,2.28,2.66c1.82,2.46,3.13,3.62,5.88,6.89c3.05,2.83,6.76,5.73,9.12,7.41c1.2,1.32,2.04,1.72,3.62,3.29
		c1.39,1.42,2.78,2.99,4.02,4.61c1.24,1.62,2.34,3.29,3.35,4.81c0.41,0.8,0.75,1.54,1.44,2.63c0.02,0.09,0.13,0.35,0.26,0.66
		c-0.32-0.15-0.64-0.3-0.97-0.45c-4.07-1.81-8.37-3.08-12.4-3.99c-4.32-0.78-8.35-1.14-11.94-1.27c-3.47,0.06-7.1,0.4-10.35,1.03
		c-3.26,0.61-6.06,1.61-7.98,2.37c-1.36,0.54-3.17,1.3-4.77,2.09c-1.59,0.79-2.98,1.58-3.54,2.07c-0.24,0.21-0.82,0.32-0.63,0.21
		c-3.11,1.79-5.69,3.29-8.15,4.67c-1.23,0.7-2.42,1.4-3.59,2.19c-0.58,0.4-1.15,0.82-1.72,1.27c-0.56,0.44-1.19,1.03-1.59,1.74
		c-0.7,1.17-0.88,2.4-0.9,3.51c-0.02,0.55,0.03,1.12,0.04,1.62c0.02,0.51-0.01,1.03-0.06,1.56c-0.28,1.29-0.69,2.59-0.87,4.02
		c-0.09,0.71-0.11,1.45,0.03,2.19c0.14,0.75,0.37,1.42,0.61,2.11c0.49,1.37,1.08,2.71,1.67,4.05c0.58,1.33,1.16,2.7,1.77,4.03
		c0.52,2.09,1.48,3.63,2.85,6.68c1.81,3.47,3.72,6.42,5.77,8.98c1.98,2.4,4.11,4.43,6.46,6.12c-0.07,0.11-0.13,0.24-0.2,0.33
		c-0.36-0.04-0.25,0.16-0.58,0.48c-0.18-0.07-0.05,0.13-0.16,0.26c-0.01,0.41-0.28,0.4-0.51,0.76c-0.16,0.76-0.46,0.96-1.02,1.9
		c-0.4,1.1-0.85,1.84-1.61,2.62c-0.04,0.27-0.18,0.21-0.13,0.55c-0.4,0.32-1.11,0.85-1.22,1.39c-0.42-0.06-0.72,0.64-1.1,0.82
		c-1.29,1.38-2.31,2.75-3.71,3.94c-1.23,1.32-2.09,2.16-2.65,3.4c-0.85,0.31-0.95,0.92-1.92,1.55c-0.63,0.95-1.51,1.89-1.89,2.65
		c-0.49,0.18-0.51,0.52-1.01,0.88c-0.9,0.63-1.97,1.22-2.68,1.93c-0.24,0.1-0.47,0.16-0.71,0.43c-0.11-0.03-0.74,0.21-0.41,0.47
		c-0.2,0.36,0.24-0.18,0.3,0.05c0.1,0.2-0.26,0.32,0.04,0.55c1.31-0.38,2.4-1.42,3.57-2.03c0.51-0.46,1-0.85,1.49-1.14
		c0.71-0.83,1.5-1.73,1.94-2.21c0.31-0.34,0.95-0.78,0.9-1.16c-0.01-0.08,0.18-0.01,0.15,0.01c0.72-0.88,1.5-1.17,1.99-1.98
		c0.2-0.33,0.3-0.68,0.4-1.06c0.72-0.46,1.37-1.13,1.92-1.89c0.49-0.01,0.46-0.41,0.93-0.7c1.49-1.96,2.45-2.94,4.14-4.67
		c0.16-0.24,0.1-0.47,0.26-0.71c1.03-0.8,1.74-2.34,2.13-3.32c0.1-0.25,0.24-0.43,0.32-0.66c0.08-0.23,0.08-0.45,0.16-0.64
		c0.16-0.43,0.5-0.72,0.5-1.15c0.23-0.03,0.36-0.39,0.53-0.63c0.01-0.21,0.24-0.46,0.14-0.64c0.01-0.04,0.04-0.09,0.08-0.14
		c0.01,0.01,0.02,0.01,0.03,0.02c0.62,0.44,1.29,0.88,2.07,1.17c0.79,0.31,1.7,0.33,2.49,0.22c0.8-0.11,1.54-0.28,2.31-0.42
		c0.76-0.15,1.54-0.3,2.32-0.46c3.14-0.63,6.48-1.31,10.17-2.35c1.79-0.56,2.57-1.03,4.33-1.71c1.91-0.63,3.93-1.48,5.91-2.52
		c1.98-1.05,3.9-2.28,5.72-3.57c1.82-1.29,3.54-2.61,5.14-3.86c1.61-1.24,3.08-2.43,4.3-3.56c1.24-1.13,2.28-2.14,3.22-3.34
		c0.92-1.2,1.45-2.21,2.06-3.39c1.3-2.52,2.35-5.07,2.93-7.3c0.5-0.83,1.26-3.13,2.08-4.85c0.37-1.1,1.46-2.95,1.69-3.61
		c0.34-0.6,1.05-1.53,1.66-2.21c0.6-0.68,1.07-1.17,0.69-1.09c-0.17-0.07-0.83,0.5-1.52,1.35c-0.69,0.85-1.39,1.98-1.91,2.87
		c-0.76,0.72-1.02,1.51-2.23,4.16c-0.28,0.18-0.3,0.81-0.73,1.86c-0.61,2.18-1.1,2.97-2.14,5.46c-0.78,2.14-1.54,3.6-2.65,5.14
		c-1.13,1.53-2.67,3.13-5.39,5.31c-1.37,1.16-2.72,2.2-4.01,3.21c-1.3,1-2.56,1.96-3.85,2.85c-2.57,1.79-5.21,3.42-8.38,4.77
		c-1.33,0.73-1.6,0.68-2.92,1.46c-1.5,0.51-3.56,1.1-5.63,1.65c-2.08,0.55-4.17,1.06-5.7,1.54c-0.7-0.03-2.19,0.26-3.82,0.59
		c-0.82,0.16-1.66,0.33-2.45,0.49c-0.8,0.16-1.5,0.28-2.03,0.24c-0.64,0.01-1.18-0.14-1.77-0.46c-0.58-0.3-1.19-0.74-1.76-1.17
		l-0.87-0.64l-0.82-0.69c-0.56-0.44-1.07-0.95-1.58-1.43c-2.04-1.97-3.77-4.2-5.3-6.56c-3.05-4.74-5.25-9.94-7.41-15.41
		c-0.58-1.35-1.14-2.61-1.61-3.82c-0.23-0.61-0.45-1.2-0.61-1.79c-0.09-0.31-0.14-0.55-0.19-0.8c-0.04-0.26-0.06-0.52-0.07-0.79
		c-0.01-1.89,0.7-3.82,0.91-5.91c0.02,0,0.14-0.09,0.14-0.04c0.03,0.07-0.13,0.13-0.03,0.2c0.55-0.18,1.05-0.58,1.56-0.82
		c0.24-0.18,0.46-0.32,0.68-0.43c0.36-0.3,0.75-0.63,0.97-0.8c0.16-0.12,0.46-0.27,0.48-0.41c0.01-0.03,0.07,0,0.06,0.01
		c0.38-0.3,0.71-0.39,1.01-0.66c0.12-0.11,0.21-0.24,0.29-0.37c0.34-0.14,0.68-0.34,1-0.6c0.19,0.03,0.24-0.12,0.46-0.2
		c0.87-0.61,1.39-0.89,2.33-1.34c0.11-0.07,0.13-0.16,0.23-0.23c0.53-0.18,1.08-0.63,1.43-0.93c0.09-0.08,0.18-0.12,0.25-0.19
		c0.08-0.07,0.13-0.14,0.19-0.2c0.15-0.13,0.33-0.19,0.43-0.33c0.09,0.02,0.22-0.08,0.33-0.14c0.05-0.07,0.19-0.12,0.2-0.19
		c0.07-0.06,0.3-0.1,0.2-0.2c-0.06-0.09-0.23,0.06-0.35,0.11c-0.11-0.06-0.13,0.02-0.31,0.09c-0.05-0.04-0.04,0.04-0.12,0.07
		c-0.1,0.13-0.19,0.1-0.35,0.2c-0.23,0.24-0.38,0.27-0.78,0.53c-0.38,0.33-0.69,0.55-1.12,0.75c-0.07,0.09-0.11,0.06-0.16,0.18
		c-0.21,0.08-0.56,0.2-0.71,0.38c-0.14-0.06-0.38,0.17-0.56,0.21c-0.73,0.4-1.34,0.83-2.06,1.19c-0.67,0.42-1.13,0.7-1.5,1.15
		c-0.37,0.09-0.48,0.31-0.94,0.53c-0.36,0.34-0.8,0.69-1.03,0.97c-0.21,0.07-0.25,0.19-0.48,0.33c-0.41,0.24-0.88,0.48-1.22,0.76
		c-0.1,0.04-0.2,0.08-0.31,0.18c-0.03-0.01-0.16,0.04-0.21,0.1c0.03-0.29,0.04-0.58,0.05-0.87c0.01-1.06,0.08-2.06,0.35-2.92
		c0.27-0.87,0.74-1.59,1.42-2.18c1.51-1.3,3.16-2.43,4.85-3.58c2.38-1.18,4.21-2.26,6.23-3.44c2.04-1.17,4.28-2.51,7.61-3.96
		c3.14-1.6,6.68-3.02,10.13-3.78c3.44-0.81,6.74-1.13,9.24-1.34c0.77,0.04,1.45,0.03,2.09,0.04c0.64,0.03,1.25,0.03,1.87,0.03
		c0.63-0.01,1.29,0.01,2.03,0.06c0.74,0.06,1.57,0.07,2.53,0.21c6.9,0.82,14.3,3.1,20,5.86c0.68,0.38,1.33,0.75,2.06,1.15
		c0.71,0.43,1.47,0.92,2.45,1.47c0.09,0.08,0.36,0.28,0.72,0.53c0.34,0.27,0.76,0.6,1.16,0.88c0.8,0.58,1.54,1.03,1.41,0.69
		c0.05,0.03,0.08,0.05,0.13,0.08c-0.09,0.71-0.14,1.37-0.08,2.11c0.06,0.61,0.2,1.15,0.37,1.68c-0.2-0.02-0.4-0.03-0.61-0.04
		c-0.83-0.28-1.79-0.4-2.63-0.53c-0.53-0.03-1.02-0.05-1.45-0.08c-0.84,0.05-1.75,0.16-2.24,0.23c-0.35,0.04-0.94,0.08-1.1,0.21
		c-0.03,0.03-0.11-0.02-0.08-0.03c-0.85,0.18-1.45,0.18-2.12,0.41c-0.28,0.09-0.5,0.21-0.74,0.34c-0.64,0.09-1.33,0.29-1.99,0.55
		c-0.28-0.03-0.46,0.13-0.85,0.21c-1.75,0.7-2.71,1.08-4.44,1.77c-0.2,0.1-0.27,0.21-0.47,0.31c-0.92,0.32-1.99,0.99-2.66,1.44
		c-0.17,0.11-0.33,0.19-0.48,0.29c-0.15,0.11-0.25,0.2-0.38,0.29c-0.29,0.19-0.6,0.31-0.8,0.52c-0.13,0.01-0.38,0.16-0.58,0.27
		c-0.11,0.09-0.34,0.2-0.38,0.29c-0.13,0.1-0.51,0.21-0.38,0.29c0.07,0.09,0.38-0.13,0.6-0.24c0.16,0.04,0.21-0.06,0.53-0.2
		c0.06,0.04,0.09-0.06,0.21-0.11c0.21-0.19,0.34-0.18,0.63-0.34c0.45-0.35,0.7-0.43,1.44-0.85c0.73-0.5,1.31-0.82,2.08-1.14
		c0.14-0.12,0.19-0.09,0.32-0.24c0.36-0.13,0.99-0.34,1.3-0.57c0.2,0.04,0.69-0.26,0.98-0.31c1.35-0.53,2.57-1.05,3.93-1.4
		c1.33-0.41,2.23-0.61,3.17-0.97c0.65,0,1-0.18,1.87-0.23c0.84-0.19,1.82-0.28,2.42-0.39c0.38,0.07,0.56-0.03,1.03,0.01
		c0.64,0.04,1.32,0.16,1.95,0.25c-0.45,0.04-0.89,0.09-1.31,0.13c-0.68,0.18-1.3,0.33-1.87,0.45c-1.02,0.44-2.09,0.99-2.66,1.32
		c-0.41,0.21-1.13,0.51-1.24,0.8c-0.03,0.06-0.16,0-0.13-0.02c-0.94,0.63-1.71,0.83-2.4,1.47c-0.28,0.26-0.48,0.54-0.68,0.84
		c-0.75,0.38-1.5,0.94-2.18,1.58c-0.41,0.03-0.51,0.35-0.97,0.62c-1.77,1.69-2.8,2.6-4.65,4.1c-0.2,0.21-0.21,0.4-0.41,0.61
		c-1.05,0.71-2.08,1.98-2.73,2.79c-0.16,0.21-0.33,0.35-0.48,0.54c-0.14,0.19-0.23,0.36-0.36,0.52c-0.29,0.34-0.66,0.56-0.83,0.92
		c-0.19,0.01-0.45,0.29-0.68,0.47c-0.09,0.17-0.38,0.34-0.39,0.51c-0.14,0.17-0.64,0.35-0.4,0.51c0.16,0.17,0.48-0.23,0.75-0.4
		c0.26,0.08,0.27-0.11,0.66-0.34c0.11,0.07,0.09-0.1,0.24-0.2c0.19-0.33,0.39-0.32,0.71-0.61c0.42-0.63,0.74-0.77,1.52-1.57
		c0.7-0.92,1.29-1.55,2.14-2.24c0.11-0.23,0.21-0.18,0.26-0.46c0.41-0.29,1.14-0.76,1.39-1.23c0.33,0.03,0.76-0.58,1.12-0.76
		c1.44-1.23,2.64-2.45,4.15-3.46c1.4-1.11,2.4-1.76,3.29-2.72c0.83-0.22,1.12-0.66,2.19-1.07c0.9-0.65,2.04-1.2,2.72-1.65
		c0.5-0.02,0.68-0.27,1.27-0.39c1.07-0.23,2.26-0.28,3.24-0.42c0.21,0.03,0.41,0.05,0.67,0.04c-0.11,1.34-0.02,2.8,0.28,4.22
		c-0.26,0.64,0.05,1.1,0.2,2.09c0.18,0.51,0.43,0.97,0.75,1.38c-1.1,1.77-1.93,3.91-2.48,6.09c-0.58,2.31-0.93,4.67-1.26,6.83
		c-0.18,2.31-0.31,4.43-0.53,6.3c-0.05,3.62-0.23,7.58-0.41,9.74c-0.11,1.52-0.54,4.06-0.33,4.87c0.05,0.18-0.17,0.44-0.16,0.33
		c-0.38,3.77-1.13,6.21-1.52,9.27c-0.16,1.25-0.22,2.35-0.28,3.5c-0.8,2.7-1.62,5.72-2.43,8.73c-0.68,0.96-0.69,1.95-1.42,3.56
		c-1.3,3.89-2.61,6.83-4.09,9.64c-1.49,2.81-3.19,5.48-5.6,8.66c-0.55,0.81-0.68,1.29-1.25,2.09c-1.41,1.57-2.96,3.42-4.48,5.21
		c-1.51,1.79-2.97,3.51-4.09,4.85c-0.58,0.67-1.12,1.2-1.65,1.81c-0.52,0.6-0.88,1.09-1.35,1.61c-1.03,1.11-2.2,2-2.96,2.98
		c-0.5,0.21-1.42,1.1-2.19,1.74c-0.4,0.48-1.31,1.16-1.46,1.52c-0.51,0.52-1.98,1.42-1.47,1.52c0.28,0.22,1.46-0.97,2.29-1.62
		c0.6-0.09,0.8-0.5,2.02-1.42c0.23,0.05,0.33-0.31,0.8-0.69c0.76-0.95,1.29-1.1,2.37-2.11c1.63-1.91,2.57-2.55,5.15-5.32
		c1.24-1.5,2.32-2.82,3.42-4.09c1.1-1.27,2.2-2.53,3.42-3.94c0.4-0.72,0.6-0.73,0.9-1.52c1.13-1.27,3-3.54,3.71-5.12
		c0.34-0.21,0.81-0.88,1.29-1.64c0.45-0.76,0.95-1.59,1.33-2.14c3.24-5.66,5.25-11.24,7.22-17.23c0.87-2.99,1.48-5.52,1.93-7.85
		c0.45-2.33,0.73-4.45,0.85-6.65c0.82-2.75,0.73-4.45,1.38-8.31c0.19-3.81,0.4-8.18,0.24-10.87c0.29-1.63,0.08-2.47,0.26-4.53
		c0.34-3.69,0.99-7.71,1.78-10.97c0.15-0.39,0.29-0.75,0.45-1.17c0.16-0.41,0.33-0.86,0.51-1.42c0.09-0.1,0.38-0.62,0.6-1.09
		c0.08-0.16,0.15-0.31,0.19-0.45c0.19,0.16,0.41,0.29,0.63,0.4c0.47,0.23,1.02,0.34,1.52,0.28c0.5-0.05,0.95-0.21,1.35-0.36
		c0.81-0.34,1.48-0.59,2.31-0.65c0.82-0.07,1.7,0.03,2.7,0.2c0.5,0.04,0.76-0.12,1.28-0.07c0.54,0.16,1.13,0.28,1.76,0.34
		c0.31,0.03,0.63,0.05,0.97,0.05c0.34-0.01,0.71-0.03,1.1-0.15c0.04-0.01,0.07-0.03,0.11-0.04c0.3,1.33,0.83,2.72,1.04,4.02
		c0.23,0.76,0.42,1.48,0.5,2.14c0.41,1.2,0.78,2.55,0.95,3.3c0.13,0.52,0.21,1.43,0.46,1.67c0.06,0.05-0.04,0.17-0.05,0.13
		c0.31,1.3,0.22,2.23,0.51,3.29c0.13,0.43,0.29,0.8,0.47,1.18c0.01,1,0.14,2.11,0.36,3.19c-0.18,0.43,0.05,0.73,0.04,1.37
		c0.52,2.88,0.75,4.51,0.95,7.36c0.06,0.34,0.21,0.49,0.28,0.83c-0.01,1.52,0.49,3.42,0.83,4.61c0.09,0.3,0.11,0.57,0.2,0.85
		c0.08,0.27,0.19,0.47,0.26,0.71c0.14,0.52,0.14,1.04,0.36,1.44c-0.09,0.19,0.03,0.63,0.07,0.99c0.1,0.21,0.11,0.61,0.26,0.71
		c0.08,0.24,0.01,0.87,0.26,0.71c0.23-0.06,0.04-0.63,0.01-1c0.19-0.21,0.04-0.34,0.03-0.88c0.12-0.07-0.04-0.16-0.06-0.36
		c-0.19-0.4-0.08-0.59-0.16-1.1c-0.33-0.83-0.28-1.24-0.53-2.55c-0.4-1.32-0.59-2.33-0.68-3.65c-0.13-0.27-0.03-0.33-0.24-0.59
		c-0.01-0.6,0-1.64-0.25-2.21c0.21-0.29-0.06-1.15-0.01-1.63c-0.29-2.24-0.66-4.27-0.81-6.48c-0.28-2.16-0.47-3.62-1.03-5.1
		c0.09-1.03-0.24-1.57-0.34-2.96c-0.41-1.3-0.81-2.8-1.24-3.67c-0.02-0.6-0.24-0.85-0.4-1.56c-0.26-1.29-0.58-2.71-1.06-3.82
		c-0.05-0.29-0.1-0.56-0.29-0.95c0.01-0.03,0-0.12-0.03-0.22c0.26,0.24,0.6,0.49,0.82,0.73c0.03,0.46,0.35,0.5,0.97,1.25
		c-0.07,0.2,0.22,0.19,0.47,0.48c0.68,0.4,0.73,0.79,1.38,1.47c0.8,0.61,1.24,1.1,1.83,1.82c0.72,0.88,1.42,1.8,1.92,2.72
		c0.55,0.77,0.98,1.54,1.22,2.25c0.15,0.29,0.31,0.67,0.47,1.03c0.16,0.36,0.31,0.71,0.46,1.05c0.29,0.68,0.55,1.29,0.73,1.71
		c0.25,0.61,0.55,1.67,0.87,1.91c0.07,0.05,0,0.21-0.02,0.16c0.64,1.5,0.8,2.6,1.39,3.79c0.24,0.49,0.51,0.88,0.8,1.3
		c0.29,1.18,0.74,2.45,1.27,3.67c-0.06,0.53,0.26,0.85,0.43,1.59c1.32,3.28,1.94,5.16,2.95,8.46c0.16,0.4,0.34,0.54,0.5,0.93
		c0.41,1.78,1.44,3.93,2.1,5.27c0.17,0.34,0.27,0.65,0.43,0.95c0.16,0.31,0.32,0.51,0.45,0.79c0.29,0.58,0.43,1.2,0.76,1.63
		c-0.03,0.24,0.2,0.74,0.34,1.15c0.16,0.22,0.28,0.69,0.45,0.79c0.15,0.28,0.24,1.02,0.45,0.79c0.21-0.11-0.14-0.74-0.27-1.17
		c0.13-0.28-0.06-0.4-0.22-1.03c0.1-0.1-0.08-0.18-0.16-0.42c-0.31-0.43-0.24-0.68-0.46-1.26c-0.55-0.92-0.61-1.41-1.22-2.89
		c-0.76-1.48-1.24-2.63-1.69-4.16c-0.2-0.29-0.13-0.38-0.4-0.65c-0.17-0.71-0.45-1.92-0.86-2.55c0.13-0.38-0.38-1.34-0.46-1.9
		c-0.87-2.61-1.81-4.92-2.59-7.49c-0.9-2.48-1.5-4.15-2.45-5.79c-0.18-1.22-0.65-1.81-1.1-3.42c-0.71-1.47-1.44-3.19-2.02-4.19
		c-0.07-0.35-0.18-0.59-0.33-0.83c0.7,0.85,1.34,1.72,2.02,2.73c0.43,0.34,0.36,0.5,0.88,0.76c0.5,0.83,1.35,2.17,2.18,2.95
		c0.06,0.18,0.11,0.35,0.16,0.52c0.17,0.39,0.31,0.75,0.4,1.09c0.29,0.61,0.62,1.27,0.79,1.62c0.12,0.26,0.26,0.71,0.41,0.8
		c0.03,0.02,0,0.09-0.01,0.08c0.31,0.63,0.39,1.1,0.68,1.61c0.12,0.21,0.25,0.36,0.39,0.53c0.14,0.5,0.36,1.04,0.63,1.56
		c-0.03,0.24,0.13,0.36,0.21,0.68c0.66,1.37,0.97,2.17,1.49,3.57c0.08,0.16,0.17,0.22,0.25,0.38c0.22,0.76,0.74,1.65,1.08,2.2
		c0.09,0.14,0.14,0.27,0.22,0.4c0.08,0.13,0.16,0.21,0.23,0.32c0.14,0.24,0.23,0.5,0.39,0.67c-0.01,0.11,0.11,0.31,0.18,0.48
		c0.08,0.09,0.14,0.29,0.23,0.32c0.08,0.11,0.13,0.43,0.23,0.32c0.1-0.06-0.08-0.32-0.15-0.5c0.06-0.13-0.03-0.18-0.12-0.44
		c0.04-0.05-0.04-0.07-0.08-0.18c-0.16-0.17-0.13-0.28-0.24-0.53c-0.28-0.37-0.32-0.58-0.63-1.2c-0.39-0.6-0.63-1.08-0.87-1.73
		c-0.1-0.12-0.06-0.16-0.2-0.26c-0.09-0.3-0.23-0.82-0.44-1.07c0.06-0.17-0.19-0.56-0.24-0.81c-0.44-1.1-0.91-2.07-1.29-3.15
		c-0.45-1.05-0.73-1.75-1.2-2.43c-0.09-0.53-0.31-0.76-0.53-1.45c-0.34-0.61-0.69-1.34-0.97-1.76c-0.04-0.19-0.1-0.31-0.18-0.45
		c0.42,0.53,1.01,1.12,1.3,1.57c2.88,3.16,5.99,5.56,9.47,7.89c0.88,0.54,1.77,0.96,2.58,1.35c0.82,0.33,1.59,0.68,2.33,0.92
		c1.49,0.51,2.87,0.83,4.31,1.02c1.68,0.89,2.83,0.85,5.27,1.66c2.48,0.38,5.32,0.8,7.09,0.84c1.03,0.37,1.6,0.24,2.93,0.51
		c0.26,0.06,0.53,0.11,0.8,0.17c-0.01,0.01-0.03,0.02-0.04,0.04c0.55,2.06,1.88,4.14,2.76,6.08c0.61,0.94,1.15,1.82,1.56,2.65
		c1.09,1.4,2.29,2.93,2.94,3.76c0.45,0.6,1.07,1.69,1.54,1.82c0.1,0.03,0.04,0.24,0.01,0.2c1.16,1.44,1.61,2.63,2.66,3.72
		c0.43,0.45,0.88,0.78,1.35,1.11c0.65,1.22,1.51,2.47,2.48,3.64c0.03,0.65,0.53,0.86,0.9,1.64c2.45,3.17,3.65,5.07,5.52,8.48
		c0.27,0.39,0.55,0.48,0.83,0.87c0.82,1.9,2.43,4.02,3.39,5.42c0.24,0.36,0.4,0.68,0.61,1.01c0.22,0.32,0.45,0.53,0.63,0.83
		c0.39,0.63,0.54,1.33,0.98,1.81c-0.08,0.29,0.2,0.85,0.33,1.32c0.19,0.25,0.28,0.8,0.51,0.92c0.16,0.33,0.12,1.2,0.48,0.95
		C276.92,195.95,276.57,195.17,276.45,194.67z"/>
</g>
<g>
	<path class="st2" d="M206.77,271.08c0.46,4.19,2,5.71,6.18,5.93c1.47,0.08,3.01,0.06,4.42-0.3c3.33-0.87,4.98-3.93,4.08-7.23
		c-0.47-1.73-1.47-2.98-3.36-3.3c-0.76-0.13-1.51-0.25-2.33-0.38c0-0.9,0-1.77,0-2.56c1.33-0.27,2.64-0.3,3.74-0.79
		c3.52-1.55,4.31-8.63,1.31-11.06c-2.23-1.81-5.81-0.68-6.62,2.25c-0.42,1.52-0.42,3.17-0.51,4.77c-0.2,3.49-1.47,6.41-4.54,8.26
		c-4.72,2.84-10.74,0.76-12.77-4.36c-1.17-2.94-1.24-5.95-0.15-8.92c1.32-3.6,3.96-5.65,7.78-5.87c3.37-0.19,6.02,1.2,7.71,4.52
		c2.01-4.09,5.25-5.41,9.34-4.11c3.32,1.06,4.83,3.75,5.15,7.08c0.45,4.8-0.94,7.31-4.95,9.31c0.01,0.11-0.02,0.29,0.04,0.32
		c5.15,2.99,5.65,9.48,1,13.15c-4.26,3.36-12.45,3.28-16.56-0.29c-0.86-0.75-1.7-1.82-1.97-2.88
		C202.72,270.56,203.44,270.67,206.77,271.08z M198.99,257.37c0.38,1.62,0.56,3.11,1.1,4.47c0.76,1.92,2.3,2.96,4.44,3
		c2.07,0.04,3.54-0.91,4.45-2.71c1.41-2.83,1.42-5.75,0.19-8.62c-0.79-1.83-2.28-2.87-4.32-2.96c-2.01-0.09-3.7,0.67-4.56,2.51
		C199.65,254.41,199.4,255.96,198.99,257.37z"/>
	<path class="st3" d="M247.53,251.89c2-3.66,4.28-4.86,8.06-4.29c3.18,0.48,5.72,3.07,6.4,6.61c0.89,4.62,0.36,9.12-1.15,13.55
		c-0.53,1.55-1.24,2.49-3.02,2.13c-0.4-0.08-0.82-0.01-1.46-0.01c0.31-0.96,0.53-1.79,0.84-2.58c1.46-3.76,1.69-7.66,1.28-11.62
		c-0.33-3.17-2.13-5.18-4.47-5.16c-2.59,0.02-4.26,2.08-4.5,5.46c-0.18,2.54-0.15,5.15-0.71,7.61c-0.98,4.26-4.2,6.62-8.54,6.76
		c-3.86,0.12-7.4-2.33-8.64-6.26c-1.24-3.92-1.28-7.88,0.49-11.69c1.51-3.25,4.25-4.83,7.71-4.91c3.16-0.07,5.85,1.05,7.37,4.11
		C247.22,251.69,247.35,251.75,247.53,251.89z M245.87,259.07c-0.29-1.75-0.4-3.31-0.82-4.78c-0.7-2.42-2.52-3.73-4.85-3.76
		c-2.41-0.03-4.16,1.16-4.96,3.59c-1.09,3.33-1.06,6.69,0.21,9.97c0.83,2.13,2.45,3.2,4.67,3.22c2.15,0.02,3.95-1.07,4.67-3.21
		C245.35,262.44,245.55,260.65,245.87,259.07z"/>
	<path class="st2" d="M96.02,238.77c1.06,0,2.12,0,3,0c0.63,0.93,1.09,1.86,1.77,2.56c2.53,2.59,2.55,2.57,2.17,6.09
		c0.07,0.1,0.11,0.24,0.21,0.28c6.74,3.14,9.33,10.15,6.22,17.01c-1.64,3.62-4.57,5.38-8.48,5.58c-3.64,0.19-6.69-0.96-8.82-4.05
		c-2.09-3.04-2.33-6.48-1.82-9.97c0.68-4.66,3.2-7.72,8.01-8.64c1.42-0.27,1.8-2.44,0.67-3.76c-0.42-0.49-1.09-0.79-1.45-1.32
		c-0.74-1.07-1.35-2.23-2.01-3.35C95.66,239.06,95.84,238.92,96.02,238.77z M106.7,258.95c0.09-0.03,0.17-0.06,0.26-0.09
		c-0.48-1.81-0.75-3.72-1.5-5.42c-1-2.28-3.15-2.98-5.5-2.88c-2.27,0.09-4.15,0.93-5.16,3.18c-1.16,2.62-1.13,5.37-0.67,8.07
		c0.61,3.64,2.69,5.43,5.96,5.51c3.35,0.08,5.46-1.69,6.28-5.36C106.59,260.98,106.59,259.95,106.7,258.95z"/>
	<path class="st2" d="M270.57,259.08c0,1.51-0.21,3.07,0.05,4.56c0.42,2.43,2.81,3.88,5.56,3.68c2.87-0.21,4.54-1.71,4.87-4.31
		c0.3-2.33-0.25-4.36-1.91-6.08c-1.04-1.07-2.2-2.07-3-3.31c-1.03-1.59-1.76-3.38-2.82-5.49c1.82,0,2.95,0,4.22,0
		c0.22,2.84,2.34,4.53,4.14,6.39c2.43,2.51,3.76,5.37,3.11,8.9c-0.94,5.1-5.88,7.89-11.6,6.64c-4.2-0.92-6.54-3.85-6.52-8.16
		C266.71,258.8,267.25,258.4,270.57,259.08z"/>
	<path class="st2" d="M130.48,259.02c0,1.64-0.22,3.21,0.05,4.69c0.44,2.4,2.66,3.74,5.45,3.61c2.81-0.14,4.62-1.68,4.97-4.21
		c0.32-2.32-0.2-4.37-1.84-6.11c-1.07-1.12-2.13-2.25-3.15-3.42c-1.33-1.53-2.1-3.29-2.09-5.49c1.17,0,2.27,0,3.54,0
		c0.31,2.73,2.26,4.52,4.11,6.37c2.77,2.78,4.09,6,2.96,9.9c-1.31,4.51-6.15,6.88-11.45,5.66c-4.62-1.06-7.08-4.74-6.35-9.48
		C126.95,258.74,127.34,258.57,130.48,259.02z"/>
	<path class="st4" d="M181.72,255.68c0,2.12,0,4.08,0,6.16c-3.78,0-7.49,0-11.31,0c0-2.06,0-4.06,0-6.16
		C174.2,255.68,177.96,255.68,181.72,255.68z"/>
	<path class="st3" d="M118.67,262.71c2.6,0.01,4.2,1.49,4.16,3.86c-0.03,2.4-1.66,3.92-4.17,3.9c-2.64-0.02-4.26-1.56-4.23-4.01
		C114.46,264.04,115.98,262.69,118.67,262.71z"/>
	<path class="st5" d="M157.18,266.54c0.03,2.39-1.59,3.93-4.12,3.93c-2.57,0-4.22-1.47-4.26-3.8c-0.04-2.55,1.45-3.96,4.2-3.96
		C155.64,262.7,157.16,264.1,157.18,266.54z"/>
</g>
</svg>
